<mxfile host="app.diagrams.net" agent="Mozilla/5.0 (Windows NT 10.0; Win64; x64) AppleWebKit/537.36 (KHTML, like Gecko) Chrome/131.0.0.0 Safari/537.36" version="26.0.6">
  <diagram id="C5RBs43oDa-KdzZeNtuy" name="Page-1">
    <mxGraphModel dx="1252" dy="646" grid="1" gridSize="10" guides="1" tooltips="1" connect="1" arrows="1" fold="1" page="1" pageScale="1" pageWidth="827" pageHeight="1169" math="0" shadow="0">
      <root>
        <mxCell id="WIyWlLk6GJQsqaUBKTNV-0" />
        <mxCell id="WIyWlLk6GJQsqaUBKTNV-1" parent="WIyWlLk6GJQsqaUBKTNV-0" />
        <mxCell id="WIyWlLk6GJQsqaUBKTNV-2" value="" style="rounded=0;html=1;jettySize=auto;orthogonalLoop=1;fontSize=11;endArrow=block;endFill=0;endSize=8;strokeWidth=1;shadow=0;labelBackgroundColor=none;edgeStyle=orthogonalEdgeStyle;" parent="WIyWlLk6GJQsqaUBKTNV-1" source="WIyWlLk6GJQsqaUBKTNV-3" target="WIyWlLk6GJQsqaUBKTNV-6" edge="1">
          <mxGeometry relative="1" as="geometry" />
        </mxCell>
        <mxCell id="WIyWlLk6GJQsqaUBKTNV-3" value="Start of quest Scene" style="rounded=1;whiteSpace=wrap;html=1;fontSize=12;glass=0;strokeWidth=1;shadow=0;fillColor=#f8cecc;strokeColor=#b85450;" parent="WIyWlLk6GJQsqaUBKTNV-1" vertex="1">
          <mxGeometry x="160" y="80" width="120" height="40" as="geometry" />
        </mxCell>
        <mxCell id="WIyWlLk6GJQsqaUBKTNV-4" value="Yes" style="rounded=0;html=1;jettySize=auto;orthogonalLoop=1;fontSize=11;endArrow=block;endFill=0;endSize=8;strokeWidth=1;shadow=0;labelBackgroundColor=none;edgeStyle=orthogonalEdgeStyle;" parent="WIyWlLk6GJQsqaUBKTNV-1" source="WIyWlLk6GJQsqaUBKTNV-6" target="WIyWlLk6GJQsqaUBKTNV-10" edge="1">
          <mxGeometry y="20" relative="1" as="geometry">
            <mxPoint as="offset" />
          </mxGeometry>
        </mxCell>
        <mxCell id="WIyWlLk6GJQsqaUBKTNV-5" value="No" style="edgeStyle=orthogonalEdgeStyle;rounded=0;html=1;jettySize=auto;orthogonalLoop=1;fontSize=11;endArrow=block;endFill=0;endSize=8;strokeWidth=1;shadow=0;labelBackgroundColor=none;" parent="WIyWlLk6GJQsqaUBKTNV-1" source="WIyWlLk6GJQsqaUBKTNV-6" target="WIyWlLk6GJQsqaUBKTNV-7" edge="1">
          <mxGeometry y="10" relative="1" as="geometry">
            <mxPoint as="offset" />
          </mxGeometry>
        </mxCell>
        <mxCell id="WIyWlLk6GJQsqaUBKTNV-6" value="Follow&amp;nbsp;&lt;div&gt;Sound/&lt;br&gt;Lira&lt;/div&gt;" style="rhombus;whiteSpace=wrap;html=1;shadow=0;fontFamily=Helvetica;fontSize=12;align=center;strokeWidth=1;spacing=6;spacingTop=-4;fillColor=#e1d5e7;strokeColor=#9673a6;" parent="WIyWlLk6GJQsqaUBKTNV-1" vertex="1">
          <mxGeometry x="165" y="165" width="110" height="90" as="geometry" />
        </mxCell>
        <mxCell id="WIyWlLk6GJQsqaUBKTNV-7" value="SaveKid = false" style="rounded=1;whiteSpace=wrap;html=1;fontSize=12;glass=0;strokeWidth=1;shadow=0;fillColor=#dae8fc;strokeColor=#6c8ebf;" parent="WIyWlLk6GJQsqaUBKTNV-1" vertex="1">
          <mxGeometry x="320" y="190" width="120" height="40" as="geometry" />
        </mxCell>
        <mxCell id="WIyWlLk6GJQsqaUBKTNV-8" value="Yes" style="rounded=0;html=1;jettySize=auto;orthogonalLoop=1;fontSize=11;endArrow=block;endFill=0;endSize=8;strokeWidth=1;shadow=0;labelBackgroundColor=none;edgeStyle=orthogonalEdgeStyle;" parent="WIyWlLk6GJQsqaUBKTNV-1" source="WIyWlLk6GJQsqaUBKTNV-10" target="WIyWlLk6GJQsqaUBKTNV-11" edge="1">
          <mxGeometry x="0.3333" y="20" relative="1" as="geometry">
            <mxPoint as="offset" />
          </mxGeometry>
        </mxCell>
        <mxCell id="WIyWlLk6GJQsqaUBKTNV-9" value="No" style="edgeStyle=orthogonalEdgeStyle;rounded=0;html=1;jettySize=auto;orthogonalLoop=1;fontSize=11;endArrow=block;endFill=0;endSize=8;strokeWidth=1;shadow=0;labelBackgroundColor=none;" parent="WIyWlLk6GJQsqaUBKTNV-1" source="WIyWlLk6GJQsqaUBKTNV-10" target="WIyWlLk6GJQsqaUBKTNV-12" edge="1">
          <mxGeometry y="10" relative="1" as="geometry">
            <mxPoint as="offset" />
          </mxGeometry>
        </mxCell>
        <mxCell id="WIyWlLk6GJQsqaUBKTNV-10" value="Save the Kid" style="rhombus;whiteSpace=wrap;html=1;shadow=0;fontFamily=Helvetica;fontSize=12;align=center;strokeWidth=1;spacing=6;spacingTop=-4;fillColor=#e1d5e7;strokeColor=#9673a6;" parent="WIyWlLk6GJQsqaUBKTNV-1" vertex="1">
          <mxGeometry x="170" y="290" width="100" height="80" as="geometry" />
        </mxCell>
        <mxCell id="WIyWlLk6GJQsqaUBKTNV-11" value="SaveKid = true" style="rounded=1;whiteSpace=wrap;html=1;fontSize=12;glass=0;strokeWidth=1;shadow=0;fillColor=#dae8fc;strokeColor=#6c8ebf;" parent="WIyWlLk6GJQsqaUBKTNV-1" vertex="1">
          <mxGeometry x="160" y="430" width="120" height="40" as="geometry" />
        </mxCell>
        <mxCell id="WIyWlLk6GJQsqaUBKTNV-12" value="SaveKid = false" style="rounded=1;whiteSpace=wrap;html=1;fontSize=12;glass=0;strokeWidth=1;shadow=0;fillColor=#dae8fc;strokeColor=#6c8ebf;" parent="WIyWlLk6GJQsqaUBKTNV-1" vertex="1">
          <mxGeometry x="320" y="310" width="120" height="40" as="geometry" />
        </mxCell>
        <mxCell id="nYYBWFok0ifMD28NbzwQ-6" style="edgeStyle=orthogonalEdgeStyle;rounded=0;orthogonalLoop=1;jettySize=auto;html=1;exitX=0.5;exitY=1;exitDx=0;exitDy=0;entryX=0.5;entryY=0;entryDx=0;entryDy=0;" edge="1" parent="WIyWlLk6GJQsqaUBKTNV-1" source="nYYBWFok0ifMD28NbzwQ-4" target="nYYBWFok0ifMD28NbzwQ-5">
          <mxGeometry relative="1" as="geometry" />
        </mxCell>
        <mxCell id="nYYBWFok0ifMD28NbzwQ-4" value="Arrive at Village" style="rounded=1;whiteSpace=wrap;html=1;fontSize=12;glass=0;strokeWidth=1;shadow=0;fillColor=#f8cecc;strokeColor=#b85450;" vertex="1" parent="WIyWlLk6GJQsqaUBKTNV-1">
          <mxGeometry x="510" y="80" width="120" height="40" as="geometry" />
        </mxCell>
        <mxCell id="nYYBWFok0ifMD28NbzwQ-7" style="edgeStyle=orthogonalEdgeStyle;rounded=0;orthogonalLoop=1;jettySize=auto;html=1;exitX=1;exitY=0.5;exitDx=0;exitDy=0;" edge="1" parent="WIyWlLk6GJQsqaUBKTNV-1" source="nYYBWFok0ifMD28NbzwQ-5">
          <mxGeometry relative="1" as="geometry">
            <mxPoint x="690" y="185" as="targetPoint" />
          </mxGeometry>
        </mxCell>
        <mxCell id="nYYBWFok0ifMD28NbzwQ-8" value="True" style="edgeLabel;html=1;align=center;verticalAlign=middle;resizable=0;points=[];" vertex="1" connectable="0" parent="nYYBWFok0ifMD28NbzwQ-7">
          <mxGeometry x="-0.2067" y="2" relative="1" as="geometry">
            <mxPoint as="offset" />
          </mxGeometry>
        </mxCell>
        <mxCell id="nYYBWFok0ifMD28NbzwQ-10" style="edgeStyle=orthogonalEdgeStyle;rounded=0;orthogonalLoop=1;jettySize=auto;html=1;exitX=0.5;exitY=1;exitDx=0;exitDy=0;entryX=0.5;entryY=0;entryDx=0;entryDy=0;" edge="1" parent="WIyWlLk6GJQsqaUBKTNV-1" source="nYYBWFok0ifMD28NbzwQ-5" target="nYYBWFok0ifMD28NbzwQ-12">
          <mxGeometry relative="1" as="geometry">
            <mxPoint x="570" y="260" as="targetPoint" />
          </mxGeometry>
        </mxCell>
        <mxCell id="nYYBWFok0ifMD28NbzwQ-11" value="False" style="edgeLabel;html=1;align=center;verticalAlign=middle;resizable=0;points=[];" vertex="1" connectable="0" parent="nYYBWFok0ifMD28NbzwQ-10">
          <mxGeometry x="-0.01" y="-4" relative="1" as="geometry">
            <mxPoint x="-4" y="-3" as="offset" />
          </mxGeometry>
        </mxCell>
        <mxCell id="nYYBWFok0ifMD28NbzwQ-5" value="SaveKid?" style="ellipse;whiteSpace=wrap;html=1;fillColor=#ffe6cc;strokeColor=#d79b00;" vertex="1" parent="WIyWlLk6GJQsqaUBKTNV-1">
          <mxGeometry x="510" y="160" width="120" height="50" as="geometry" />
        </mxCell>
        <mxCell id="nYYBWFok0ifMD28NbzwQ-26" style="edgeStyle=orthogonalEdgeStyle;rounded=0;orthogonalLoop=1;jettySize=auto;html=1;entryX=0;entryY=0.5;entryDx=0;entryDy=0;" edge="1" parent="WIyWlLk6GJQsqaUBKTNV-1" source="nYYBWFok0ifMD28NbzwQ-9" target="nYYBWFok0ifMD28NbzwQ-25">
          <mxGeometry relative="1" as="geometry" />
        </mxCell>
        <mxCell id="nYYBWFok0ifMD28NbzwQ-9" value="Gust Scene" style="rounded=1;whiteSpace=wrap;html=1;fontSize=12;glass=0;strokeWidth=1;shadow=0;fillColor=#fff2cc;strokeColor=#d6b656;" vertex="1" parent="WIyWlLk6GJQsqaUBKTNV-1">
          <mxGeometry x="690" y="165" width="120" height="40" as="geometry" />
        </mxCell>
        <mxCell id="nYYBWFok0ifMD28NbzwQ-16" style="edgeStyle=orthogonalEdgeStyle;rounded=0;orthogonalLoop=1;jettySize=auto;html=1;exitX=0.5;exitY=1;exitDx=0;exitDy=0;entryX=0.5;entryY=0;entryDx=0;entryDy=0;" edge="1" parent="WIyWlLk6GJQsqaUBKTNV-1" source="nYYBWFok0ifMD28NbzwQ-12" target="nYYBWFok0ifMD28NbzwQ-15">
          <mxGeometry relative="1" as="geometry" />
        </mxCell>
        <mxCell id="nYYBWFok0ifMD28NbzwQ-12" value="Strange on Village/&lt;br&gt;Stop by Inn scene" style="rounded=1;whiteSpace=wrap;html=1;fontSize=12;glass=0;strokeWidth=1;shadow=0;fillColor=#fff2cc;strokeColor=#d6b656;" vertex="1" parent="WIyWlLk6GJQsqaUBKTNV-1">
          <mxGeometry x="510" y="255" width="120" height="40" as="geometry" />
        </mxCell>
        <mxCell id="nYYBWFok0ifMD28NbzwQ-19" style="edgeStyle=orthogonalEdgeStyle;rounded=0;orthogonalLoop=1;jettySize=auto;html=1;exitX=0.5;exitY=1;exitDx=0;exitDy=0;entryX=0.5;entryY=0;entryDx=0;entryDy=0;" edge="1" parent="WIyWlLk6GJQsqaUBKTNV-1" source="nYYBWFok0ifMD28NbzwQ-15" target="nYYBWFok0ifMD28NbzwQ-18">
          <mxGeometry relative="1" as="geometry" />
        </mxCell>
        <mxCell id="nYYBWFok0ifMD28NbzwQ-20" value="No" style="edgeLabel;html=1;align=center;verticalAlign=middle;resizable=0;points=[];" vertex="1" connectable="0" parent="nYYBWFok0ifMD28NbzwQ-19">
          <mxGeometry x="-0.25" y="1" relative="1" as="geometry">
            <mxPoint as="offset" />
          </mxGeometry>
        </mxCell>
        <mxCell id="nYYBWFok0ifMD28NbzwQ-23" style="edgeStyle=orthogonalEdgeStyle;rounded=0;orthogonalLoop=1;jettySize=auto;html=1;entryX=0;entryY=0.5;entryDx=0;entryDy=0;" edge="1" parent="WIyWlLk6GJQsqaUBKTNV-1" source="nYYBWFok0ifMD28NbzwQ-15" target="nYYBWFok0ifMD28NbzwQ-22">
          <mxGeometry relative="1" as="geometry" />
        </mxCell>
        <mxCell id="nYYBWFok0ifMD28NbzwQ-24" value="Yes" style="edgeLabel;html=1;align=center;verticalAlign=middle;resizable=0;points=[];" vertex="1" connectable="0" parent="nYYBWFok0ifMD28NbzwQ-23">
          <mxGeometry x="-0.0571" y="-4" relative="1" as="geometry">
            <mxPoint as="offset" />
          </mxGeometry>
        </mxCell>
        <mxCell id="nYYBWFok0ifMD28NbzwQ-15" value="Stop by the inn" style="rhombus;whiteSpace=wrap;html=1;shadow=0;fontFamily=Helvetica;fontSize=12;align=center;strokeWidth=1;spacing=6;spacingTop=-4;fillColor=#e1d5e7;strokeColor=#9673a6;" vertex="1" parent="WIyWlLk6GJQsqaUBKTNV-1">
          <mxGeometry x="515" y="320" width="105" height="90" as="geometry" />
        </mxCell>
        <mxCell id="nYYBWFok0ifMD28NbzwQ-18" value="End of Quest" style="rounded=1;whiteSpace=wrap;html=1;fontSize=12;glass=0;strokeWidth=1;shadow=0;fillColor=#e51400;strokeColor=#B20000;fontColor=#ffffff;" vertex="1" parent="WIyWlLk6GJQsqaUBKTNV-1">
          <mxGeometry x="510" y="450" width="120" height="40" as="geometry" />
        </mxCell>
        <mxCell id="nYYBWFok0ifMD28NbzwQ-38" style="edgeStyle=orthogonalEdgeStyle;rounded=0;orthogonalLoop=1;jettySize=auto;html=1;entryX=0;entryY=0.5;entryDx=0;entryDy=0;" edge="1" parent="WIyWlLk6GJQsqaUBKTNV-1" source="nYYBWFok0ifMD28NbzwQ-22" target="nYYBWFok0ifMD28NbzwQ-37">
          <mxGeometry relative="1" as="geometry" />
        </mxCell>
        <mxCell id="nYYBWFok0ifMD28NbzwQ-22" value="Arive at Inn Scene 3" style="rounded=1;whiteSpace=wrap;html=1;fontSize=12;glass=0;strokeWidth=1;shadow=0;fillColor=#fff2cc;strokeColor=#d6b656;" vertex="1" parent="WIyWlLk6GJQsqaUBKTNV-1">
          <mxGeometry x="1020" y="345" width="120" height="40" as="geometry" />
        </mxCell>
        <mxCell id="nYYBWFok0ifMD28NbzwQ-28" style="edgeStyle=orthogonalEdgeStyle;rounded=0;orthogonalLoop=1;jettySize=auto;html=1;entryX=0;entryY=0.5;entryDx=0;entryDy=0;" edge="1" parent="WIyWlLk6GJQsqaUBKTNV-1" source="nYYBWFok0ifMD28NbzwQ-25" target="nYYBWFok0ifMD28NbzwQ-27">
          <mxGeometry relative="1" as="geometry" />
        </mxCell>
        <mxCell id="nYYBWFok0ifMD28NbzwQ-29" value="Yes" style="edgeLabel;html=1;align=center;verticalAlign=middle;resizable=0;points=[];" vertex="1" connectable="0" parent="nYYBWFok0ifMD28NbzwQ-28">
          <mxGeometry x="0.0222" y="1" relative="1" as="geometry">
            <mxPoint as="offset" />
          </mxGeometry>
        </mxCell>
        <mxCell id="nYYBWFok0ifMD28NbzwQ-31" style="edgeStyle=orthogonalEdgeStyle;rounded=0;orthogonalLoop=1;jettySize=auto;html=1;exitX=0.5;exitY=1;exitDx=0;exitDy=0;entryX=0;entryY=0.5;entryDx=0;entryDy=0;" edge="1" parent="WIyWlLk6GJQsqaUBKTNV-1" source="nYYBWFok0ifMD28NbzwQ-25" target="nYYBWFok0ifMD28NbzwQ-30">
          <mxGeometry relative="1" as="geometry" />
        </mxCell>
        <mxCell id="nYYBWFok0ifMD28NbzwQ-32" value="No" style="edgeLabel;html=1;align=center;verticalAlign=middle;resizable=0;points=[];" vertex="1" connectable="0" parent="nYYBWFok0ifMD28NbzwQ-31">
          <mxGeometry x="0.0745" y="-1" relative="1" as="geometry">
            <mxPoint x="1" as="offset" />
          </mxGeometry>
        </mxCell>
        <mxCell id="nYYBWFok0ifMD28NbzwQ-25" value="Tell the truth" style="rhombus;whiteSpace=wrap;html=1;shadow=0;fontFamily=Helvetica;fontSize=12;align=center;strokeWidth=1;spacing=6;spacingTop=-4;fillColor=#e1d5e7;strokeColor=#9673a6;" vertex="1" parent="WIyWlLk6GJQsqaUBKTNV-1">
          <mxGeometry x="870" y="140" width="105" height="90" as="geometry" />
        </mxCell>
        <mxCell id="nYYBWFok0ifMD28NbzwQ-33" style="edgeStyle=orthogonalEdgeStyle;rounded=0;orthogonalLoop=1;jettySize=auto;html=1;exitX=1;exitY=0.5;exitDx=0;exitDy=0;entryX=0;entryY=0.5;entryDx=0;entryDy=0;" edge="1" parent="WIyWlLk6GJQsqaUBKTNV-1" source="nYYBWFok0ifMD28NbzwQ-27" target="nYYBWFok0ifMD28NbzwQ-34">
          <mxGeometry relative="1" as="geometry">
            <mxPoint x="1180" y="185" as="targetPoint" />
          </mxGeometry>
        </mxCell>
        <mxCell id="nYYBWFok0ifMD28NbzwQ-27" value="Arive at Inn Scene 1" style="rounded=1;whiteSpace=wrap;html=1;fontSize=12;glass=0;strokeWidth=1;shadow=0;fillColor=#fff2cc;strokeColor=#d6b656;" vertex="1" parent="WIyWlLk6GJQsqaUBKTNV-1">
          <mxGeometry x="1020" y="165" width="120" height="40" as="geometry" />
        </mxCell>
        <mxCell id="nYYBWFok0ifMD28NbzwQ-36" style="edgeStyle=orthogonalEdgeStyle;rounded=0;orthogonalLoop=1;jettySize=auto;html=1;entryX=0;entryY=0.5;entryDx=0;entryDy=0;" edge="1" parent="WIyWlLk6GJQsqaUBKTNV-1" source="nYYBWFok0ifMD28NbzwQ-30" target="nYYBWFok0ifMD28NbzwQ-34">
          <mxGeometry relative="1" as="geometry" />
        </mxCell>
        <mxCell id="nYYBWFok0ifMD28NbzwQ-30" value="Arive at Inn Scene 2" style="rounded=1;whiteSpace=wrap;html=1;fontSize=12;glass=0;strokeWidth=1;shadow=0;fillColor=#fff2cc;strokeColor=#d6b656;" vertex="1" parent="WIyWlLk6GJQsqaUBKTNV-1">
          <mxGeometry x="1020" y="240" width="120" height="40" as="geometry" />
        </mxCell>
        <mxCell id="nYYBWFok0ifMD28NbzwQ-41" value="" style="edgeStyle=orthogonalEdgeStyle;rounded=0;orthogonalLoop=1;jettySize=auto;html=1;" edge="1" parent="WIyWlLk6GJQsqaUBKTNV-1" source="nYYBWFok0ifMD28NbzwQ-34" target="nYYBWFok0ifMD28NbzwQ-39">
          <mxGeometry relative="1" as="geometry" />
        </mxCell>
        <mxCell id="nYYBWFok0ifMD28NbzwQ-34" value="Meet Silv Scene 1" style="rounded=1;whiteSpace=wrap;html=1;fontSize=12;glass=0;strokeWidth=1;shadow=0;fillColor=#fff2cc;strokeColor=#d6b656;" vertex="1" parent="WIyWlLk6GJQsqaUBKTNV-1">
          <mxGeometry x="1210" y="180" width="120" height="40" as="geometry" />
        </mxCell>
        <mxCell id="nYYBWFok0ifMD28NbzwQ-35" value="Silv Karma -= 2" style="rounded=1;whiteSpace=wrap;html=1;fontSize=12;glass=0;strokeWidth=1;shadow=0;fillColor=#dae8fc;strokeColor=#6c8ebf;" vertex="1" parent="WIyWlLk6GJQsqaUBKTNV-1">
          <mxGeometry x="1560" y="270" width="120" height="40" as="geometry" />
        </mxCell>
        <mxCell id="nYYBWFok0ifMD28NbzwQ-74" style="edgeStyle=orthogonalEdgeStyle;rounded=0;orthogonalLoop=1;jettySize=auto;html=1;entryX=0;entryY=0.5;entryDx=0;entryDy=0;" edge="1" parent="WIyWlLk6GJQsqaUBKTNV-1" source="nYYBWFok0ifMD28NbzwQ-37" target="nYYBWFok0ifMD28NbzwQ-68">
          <mxGeometry relative="1" as="geometry" />
        </mxCell>
        <mxCell id="nYYBWFok0ifMD28NbzwQ-37" value="Meet Silv Scene 1" style="rounded=1;whiteSpace=wrap;html=1;fontSize=12;glass=0;strokeWidth=1;shadow=0;fillColor=#fff2cc;strokeColor=#d6b656;" vertex="1" parent="WIyWlLk6GJQsqaUBKTNV-1">
          <mxGeometry x="1210" y="345" width="120" height="40" as="geometry" />
        </mxCell>
        <mxCell id="nYYBWFok0ifMD28NbzwQ-59" value="" style="edgeStyle=orthogonalEdgeStyle;rounded=0;orthogonalLoop=1;jettySize=auto;html=1;entryX=0;entryY=0.5;entryDx=0;entryDy=0;" edge="1" parent="WIyWlLk6GJQsqaUBKTNV-1" source="nYYBWFok0ifMD28NbzwQ-39" target="nYYBWFok0ifMD28NbzwQ-45">
          <mxGeometry relative="1" as="geometry" />
        </mxCell>
        <mxCell id="nYYBWFok0ifMD28NbzwQ-60" value="Yes" style="edgeLabel;html=1;align=center;verticalAlign=middle;resizable=0;points=[];" vertex="1" connectable="0" parent="nYYBWFok0ifMD28NbzwQ-59">
          <mxGeometry x="0.08" y="-1" relative="1" as="geometry">
            <mxPoint x="1" y="1" as="offset" />
          </mxGeometry>
        </mxCell>
        <mxCell id="nYYBWFok0ifMD28NbzwQ-61" style="edgeStyle=orthogonalEdgeStyle;rounded=0;orthogonalLoop=1;jettySize=auto;html=1;exitX=1;exitY=1;exitDx=0;exitDy=0;entryX=0;entryY=0.5;entryDx=0;entryDy=0;" edge="1" parent="WIyWlLk6GJQsqaUBKTNV-1" source="nYYBWFok0ifMD28NbzwQ-39" target="nYYBWFok0ifMD28NbzwQ-46">
          <mxGeometry relative="1" as="geometry" />
        </mxCell>
        <mxCell id="nYYBWFok0ifMD28NbzwQ-62" value="No" style="edgeLabel;html=1;align=center;verticalAlign=middle;resizable=0;points=[];" vertex="1" connectable="0" parent="nYYBWFok0ifMD28NbzwQ-61">
          <mxGeometry x="-0.3622" y="-4" relative="1" as="geometry">
            <mxPoint as="offset" />
          </mxGeometry>
        </mxCell>
        <mxCell id="nYYBWFok0ifMD28NbzwQ-39" value="Introduce Yourself" style="rhombus;whiteSpace=wrap;html=1;shadow=0;fontFamily=Helvetica;fontSize=12;align=center;strokeWidth=1;spacing=6;spacingTop=-4;fillColor=#e1d5e7;strokeColor=#9673a6;" vertex="1" parent="WIyWlLk6GJQsqaUBKTNV-1">
          <mxGeometry x="1390" y="157.5" width="105" height="85" as="geometry" />
        </mxCell>
        <mxCell id="nYYBWFok0ifMD28NbzwQ-76" value="" style="edgeStyle=orthogonalEdgeStyle;rounded=0;orthogonalLoop=1;jettySize=auto;html=1;" edge="1" parent="WIyWlLk6GJQsqaUBKTNV-1" source="nYYBWFok0ifMD28NbzwQ-45" target="nYYBWFok0ifMD28NbzwQ-75">
          <mxGeometry relative="1" as="geometry" />
        </mxCell>
        <mxCell id="nYYBWFok0ifMD28NbzwQ-45" value="Meet2 Silv Scene 1" style="rounded=1;whiteSpace=wrap;html=1;fontSize=12;glass=0;strokeWidth=1;shadow=0;fillColor=#fff2cc;strokeColor=#d6b656;" vertex="1" parent="WIyWlLk6GJQsqaUBKTNV-1">
          <mxGeometry x="1560" y="120" width="120" height="40" as="geometry" />
        </mxCell>
        <mxCell id="nYYBWFok0ifMD28NbzwQ-77" value="" style="edgeStyle=orthogonalEdgeStyle;rounded=0;orthogonalLoop=1;jettySize=auto;html=1;" edge="1" parent="WIyWlLk6GJQsqaUBKTNV-1" source="nYYBWFok0ifMD28NbzwQ-46" target="nYYBWFok0ifMD28NbzwQ-75">
          <mxGeometry relative="1" as="geometry" />
        </mxCell>
        <mxCell id="nYYBWFok0ifMD28NbzwQ-46" value="Meet2 Silv Scene 1" style="rounded=1;whiteSpace=wrap;html=1;fontSize=12;glass=0;strokeWidth=1;shadow=0;fillColor=#fff2cc;strokeColor=#d6b656;" vertex="1" parent="WIyWlLk6GJQsqaUBKTNV-1">
          <mxGeometry x="1560" y="230" width="120" height="40" as="geometry" />
        </mxCell>
        <mxCell id="nYYBWFok0ifMD28NbzwQ-49" value="Silv Karma -= 1" style="rounded=1;whiteSpace=wrap;html=1;fontSize=12;glass=0;strokeWidth=1;shadow=0;fillColor=#dae8fc;strokeColor=#6c8ebf;" vertex="1" parent="WIyWlLk6GJQsqaUBKTNV-1">
          <mxGeometry x="1560" y="160" width="120" height="40" as="geometry" />
        </mxCell>
        <mxCell id="nYYBWFok0ifMD28NbzwQ-63" value="Silv Karma -= 1" style="rounded=1;whiteSpace=wrap;html=1;fontSize=12;glass=0;strokeWidth=1;shadow=0;fillColor=#dae8fc;strokeColor=#6c8ebf;" vertex="1" parent="WIyWlLk6GJQsqaUBKTNV-1">
          <mxGeometry x="1560" y="432.5" width="120" height="40" as="geometry" />
        </mxCell>
        <mxCell id="nYYBWFok0ifMD28NbzwQ-64" value="" style="edgeStyle=orthogonalEdgeStyle;rounded=0;orthogonalLoop=1;jettySize=auto;html=1;entryX=0;entryY=0.5;entryDx=0;entryDy=0;" edge="1" parent="WIyWlLk6GJQsqaUBKTNV-1" source="nYYBWFok0ifMD28NbzwQ-68" target="nYYBWFok0ifMD28NbzwQ-69">
          <mxGeometry relative="1" as="geometry" />
        </mxCell>
        <mxCell id="nYYBWFok0ifMD28NbzwQ-65" value="Yes" style="edgeLabel;html=1;align=center;verticalAlign=middle;resizable=0;points=[];" vertex="1" connectable="0" parent="nYYBWFok0ifMD28NbzwQ-64">
          <mxGeometry x="0.08" y="-1" relative="1" as="geometry">
            <mxPoint x="1" y="1" as="offset" />
          </mxGeometry>
        </mxCell>
        <mxCell id="nYYBWFok0ifMD28NbzwQ-66" style="edgeStyle=orthogonalEdgeStyle;rounded=0;orthogonalLoop=1;jettySize=auto;html=1;exitX=1;exitY=1;exitDx=0;exitDy=0;entryX=0;entryY=0.5;entryDx=0;entryDy=0;" edge="1" parent="WIyWlLk6GJQsqaUBKTNV-1" source="nYYBWFok0ifMD28NbzwQ-68" target="nYYBWFok0ifMD28NbzwQ-70">
          <mxGeometry relative="1" as="geometry" />
        </mxCell>
        <mxCell id="nYYBWFok0ifMD28NbzwQ-67" value="No" style="edgeLabel;html=1;align=center;verticalAlign=middle;resizable=0;points=[];" vertex="1" connectable="0" parent="nYYBWFok0ifMD28NbzwQ-66">
          <mxGeometry x="-0.3622" y="-4" relative="1" as="geometry">
            <mxPoint as="offset" />
          </mxGeometry>
        </mxCell>
        <mxCell id="nYYBWFok0ifMD28NbzwQ-68" value="Introduce Yourself" style="rhombus;whiteSpace=wrap;html=1;shadow=0;fontFamily=Helvetica;fontSize=12;align=center;strokeWidth=1;spacing=6;spacingTop=-4;fillColor=#e1d5e7;strokeColor=#9673a6;" vertex="1" parent="WIyWlLk6GJQsqaUBKTNV-1">
          <mxGeometry x="1390" y="320" width="105" height="85" as="geometry" />
        </mxCell>
        <mxCell id="nYYBWFok0ifMD28NbzwQ-96" value="" style="edgeStyle=orthogonalEdgeStyle;rounded=0;orthogonalLoop=1;jettySize=auto;html=1;" edge="1" parent="WIyWlLk6GJQsqaUBKTNV-1" source="nYYBWFok0ifMD28NbzwQ-69" target="nYYBWFok0ifMD28NbzwQ-92">
          <mxGeometry relative="1" as="geometry" />
        </mxCell>
        <mxCell id="nYYBWFok0ifMD28NbzwQ-69" value="Meet2 Silv Scene 2" style="rounded=1;whiteSpace=wrap;html=1;fontSize=12;glass=0;strokeWidth=1;shadow=0;fillColor=#fff2cc;strokeColor=#d6b656;" vertex="1" parent="WIyWlLk6GJQsqaUBKTNV-1">
          <mxGeometry x="1560" y="330" width="120" height="40" as="geometry" />
        </mxCell>
        <mxCell id="nYYBWFok0ifMD28NbzwQ-97" value="" style="edgeStyle=orthogonalEdgeStyle;rounded=0;orthogonalLoop=1;jettySize=auto;html=1;" edge="1" parent="WIyWlLk6GJQsqaUBKTNV-1" source="nYYBWFok0ifMD28NbzwQ-70" target="nYYBWFok0ifMD28NbzwQ-92">
          <mxGeometry relative="1" as="geometry" />
        </mxCell>
        <mxCell id="nYYBWFok0ifMD28NbzwQ-70" value="Meet2 Silv Scene 2" style="rounded=1;whiteSpace=wrap;html=1;fontSize=12;glass=0;strokeWidth=1;shadow=0;fillColor=#fff2cc;strokeColor=#d6b656;" vertex="1" parent="WIyWlLk6GJQsqaUBKTNV-1">
          <mxGeometry x="1560" y="392.5" width="120" height="40" as="geometry" />
        </mxCell>
        <mxCell id="nYYBWFok0ifMD28NbzwQ-82" style="edgeStyle=orthogonalEdgeStyle;rounded=0;orthogonalLoop=1;jettySize=auto;html=1;exitX=1;exitY=0;exitDx=0;exitDy=0;entryX=0;entryY=0.5;entryDx=0;entryDy=0;" edge="1" parent="WIyWlLk6GJQsqaUBKTNV-1" source="nYYBWFok0ifMD28NbzwQ-75" target="nYYBWFok0ifMD28NbzwQ-81">
          <mxGeometry relative="1" as="geometry" />
        </mxCell>
        <mxCell id="nYYBWFok0ifMD28NbzwQ-87" value="Yes" style="edgeLabel;html=1;align=center;verticalAlign=middle;resizable=0;points=[];" vertex="1" connectable="0" parent="nYYBWFok0ifMD28NbzwQ-82">
          <mxGeometry x="0.1542" y="-3" relative="1" as="geometry">
            <mxPoint x="1" as="offset" />
          </mxGeometry>
        </mxCell>
        <mxCell id="nYYBWFok0ifMD28NbzwQ-84" style="edgeStyle=orthogonalEdgeStyle;rounded=0;orthogonalLoop=1;jettySize=auto;html=1;exitX=1;exitY=1;exitDx=0;exitDy=0;" edge="1" parent="WIyWlLk6GJQsqaUBKTNV-1" source="nYYBWFok0ifMD28NbzwQ-75" target="nYYBWFok0ifMD28NbzwQ-83">
          <mxGeometry relative="1" as="geometry" />
        </mxCell>
        <mxCell id="nYYBWFok0ifMD28NbzwQ-86" value="No" style="edgeLabel;html=1;align=center;verticalAlign=middle;resizable=0;points=[];" vertex="1" connectable="0" parent="nYYBWFok0ifMD28NbzwQ-84">
          <mxGeometry x="0.1736" y="2" relative="1" as="geometry">
            <mxPoint as="offset" />
          </mxGeometry>
        </mxCell>
        <mxCell id="nYYBWFok0ifMD28NbzwQ-75" value="Be polite" style="rhombus;whiteSpace=wrap;html=1;shadow=0;fontFamily=Helvetica;fontSize=12;align=center;strokeWidth=1;spacing=6;spacingTop=-4;fillColor=#e1d5e7;strokeColor=#9673a6;" vertex="1" parent="WIyWlLk6GJQsqaUBKTNV-1">
          <mxGeometry x="1760" y="155" width="105" height="85" as="geometry" />
        </mxCell>
        <mxCell id="nYYBWFok0ifMD28NbzwQ-81" value="Meet3 Silv Scene 1" style="rounded=1;whiteSpace=wrap;html=1;fontSize=12;glass=0;strokeWidth=1;shadow=0;fillColor=#fff2cc;strokeColor=#d6b656;" vertex="1" parent="WIyWlLk6GJQsqaUBKTNV-1">
          <mxGeometry x="1930" y="117.5" width="120" height="40" as="geometry" />
        </mxCell>
        <mxCell id="nYYBWFok0ifMD28NbzwQ-83" value="Meet3 Silv Scene 2" style="rounded=1;whiteSpace=wrap;html=1;fontSize=12;glass=0;strokeWidth=1;shadow=0;fillColor=#fff2cc;strokeColor=#d6b656;" vertex="1" parent="WIyWlLk6GJQsqaUBKTNV-1">
          <mxGeometry x="1930" y="200" width="120" height="40" as="geometry" />
        </mxCell>
        <mxCell id="nYYBWFok0ifMD28NbzwQ-85" value="Silv Karma -= 4" style="rounded=1;whiteSpace=wrap;html=1;fontSize=12;glass=0;strokeWidth=1;shadow=0;fillColor=#dae8fc;strokeColor=#6c8ebf;" vertex="1" parent="WIyWlLk6GJQsqaUBKTNV-1">
          <mxGeometry x="1930" y="240" width="120" height="40" as="geometry" />
        </mxCell>
        <mxCell id="nYYBWFok0ifMD28NbzwQ-88" style="edgeStyle=orthogonalEdgeStyle;rounded=0;orthogonalLoop=1;jettySize=auto;html=1;exitX=1;exitY=0;exitDx=0;exitDy=0;entryX=0;entryY=0.5;entryDx=0;entryDy=0;" edge="1" parent="WIyWlLk6GJQsqaUBKTNV-1" source="nYYBWFok0ifMD28NbzwQ-92" target="nYYBWFok0ifMD28NbzwQ-93">
          <mxGeometry relative="1" as="geometry" />
        </mxCell>
        <mxCell id="nYYBWFok0ifMD28NbzwQ-89" value="Yes" style="edgeLabel;html=1;align=center;verticalAlign=middle;resizable=0;points=[];" vertex="1" connectable="0" parent="nYYBWFok0ifMD28NbzwQ-88">
          <mxGeometry x="0.1542" y="-3" relative="1" as="geometry">
            <mxPoint x="1" as="offset" />
          </mxGeometry>
        </mxCell>
        <mxCell id="nYYBWFok0ifMD28NbzwQ-90" style="edgeStyle=orthogonalEdgeStyle;rounded=0;orthogonalLoop=1;jettySize=auto;html=1;exitX=1;exitY=1;exitDx=0;exitDy=0;" edge="1" parent="WIyWlLk6GJQsqaUBKTNV-1" source="nYYBWFok0ifMD28NbzwQ-92" target="nYYBWFok0ifMD28NbzwQ-94">
          <mxGeometry relative="1" as="geometry" />
        </mxCell>
        <mxCell id="nYYBWFok0ifMD28NbzwQ-91" value="No" style="edgeLabel;html=1;align=center;verticalAlign=middle;resizable=0;points=[];" vertex="1" connectable="0" parent="nYYBWFok0ifMD28NbzwQ-90">
          <mxGeometry x="0.1736" y="2" relative="1" as="geometry">
            <mxPoint as="offset" />
          </mxGeometry>
        </mxCell>
        <mxCell id="nYYBWFok0ifMD28NbzwQ-92" value="Be polite" style="rhombus;whiteSpace=wrap;html=1;shadow=0;fontFamily=Helvetica;fontSize=12;align=center;strokeWidth=1;spacing=6;spacingTop=-4;fillColor=#e1d5e7;strokeColor=#9673a6;" vertex="1" parent="WIyWlLk6GJQsqaUBKTNV-1">
          <mxGeometry x="1760" y="357.5" width="105" height="85" as="geometry" />
        </mxCell>
        <mxCell id="nYYBWFok0ifMD28NbzwQ-93" value="Meet3 Silv Scene 1" style="rounded=1;whiteSpace=wrap;html=1;fontSize=12;glass=0;strokeWidth=1;shadow=0;fillColor=#fff2cc;strokeColor=#d6b656;" vertex="1" parent="WIyWlLk6GJQsqaUBKTNV-1">
          <mxGeometry x="1930" y="320" width="120" height="40" as="geometry" />
        </mxCell>
        <mxCell id="nYYBWFok0ifMD28NbzwQ-94" value="Meet3 Silv Scene 2" style="rounded=1;whiteSpace=wrap;html=1;fontSize=12;glass=0;strokeWidth=1;shadow=0;fillColor=#fff2cc;strokeColor=#d6b656;" vertex="1" parent="WIyWlLk6GJQsqaUBKTNV-1">
          <mxGeometry x="1930" y="402.5" width="120" height="40" as="geometry" />
        </mxCell>
        <mxCell id="nYYBWFok0ifMD28NbzwQ-95" value="Silv Karma -= 4" style="rounded=1;whiteSpace=wrap;html=1;fontSize=12;glass=0;strokeWidth=1;shadow=0;fillColor=#dae8fc;strokeColor=#6c8ebf;" vertex="1" parent="WIyWlLk6GJQsqaUBKTNV-1">
          <mxGeometry x="1930" y="442.5" width="120" height="40" as="geometry" />
        </mxCell>
        <mxCell id="nYYBWFok0ifMD28NbzwQ-109" value="" style="edgeStyle=orthogonalEdgeStyle;rounded=0;orthogonalLoop=1;jettySize=auto;html=1;" edge="1" parent="WIyWlLk6GJQsqaUBKTNV-1" source="nYYBWFok0ifMD28NbzwQ-107" target="nYYBWFok0ifMD28NbzwQ-108">
          <mxGeometry relative="1" as="geometry" />
        </mxCell>
        <mxCell id="nYYBWFok0ifMD28NbzwQ-107" value="Wake up next day" style="rounded=1;whiteSpace=wrap;html=1;fontSize=12;glass=0;strokeWidth=1;shadow=0;fillColor=#f8cecc;strokeColor=#b85450;" vertex="1" parent="WIyWlLk6GJQsqaUBKTNV-1">
          <mxGeometry x="2180" y="80" width="120" height="40" as="geometry" />
        </mxCell>
        <mxCell id="nYYBWFok0ifMD28NbzwQ-114" value="" style="edgeStyle=orthogonalEdgeStyle;rounded=0;orthogonalLoop=1;jettySize=auto;html=1;" edge="1" parent="WIyWlLk6GJQsqaUBKTNV-1" source="nYYBWFok0ifMD28NbzwQ-108" target="nYYBWFok0ifMD28NbzwQ-112">
          <mxGeometry relative="1" as="geometry" />
        </mxCell>
        <mxCell id="nYYBWFok0ifMD28NbzwQ-108" value="Next Day Scene" style="rounded=1;whiteSpace=wrap;html=1;fontSize=12;glass=0;strokeWidth=1;shadow=0;fillColor=#fff2cc;strokeColor=#d6b656;" vertex="1" parent="WIyWlLk6GJQsqaUBKTNV-1">
          <mxGeometry x="2180" y="165" width="120" height="40" as="geometry" />
        </mxCell>
        <mxCell id="nYYBWFok0ifMD28NbzwQ-110" style="edgeStyle=orthogonalEdgeStyle;rounded=0;orthogonalLoop=1;jettySize=auto;html=1;exitX=0.5;exitY=1;exitDx=0;exitDy=0;entryX=0.5;entryY=0;entryDx=0;entryDy=0;" edge="1" parent="WIyWlLk6GJQsqaUBKTNV-1" source="nYYBWFok0ifMD28NbzwQ-112" target="nYYBWFok0ifMD28NbzwQ-113">
          <mxGeometry relative="1" as="geometry" />
        </mxCell>
        <mxCell id="nYYBWFok0ifMD28NbzwQ-111" value="No" style="edgeLabel;html=1;align=center;verticalAlign=middle;resizable=0;points=[];" vertex="1" connectable="0" parent="nYYBWFok0ifMD28NbzwQ-110">
          <mxGeometry x="-0.25" y="1" relative="1" as="geometry">
            <mxPoint as="offset" />
          </mxGeometry>
        </mxCell>
        <mxCell id="nYYBWFok0ifMD28NbzwQ-115" style="edgeStyle=orthogonalEdgeStyle;rounded=0;orthogonalLoop=1;jettySize=auto;html=1;entryX=0;entryY=0.5;entryDx=0;entryDy=0;" edge="1" parent="WIyWlLk6GJQsqaUBKTNV-1" source="nYYBWFok0ifMD28NbzwQ-112" target="nYYBWFok0ifMD28NbzwQ-116">
          <mxGeometry relative="1" as="geometry">
            <mxPoint x="2330" y="300" as="targetPoint" />
            <Array as="points">
              <mxPoint x="2311" y="300" />
              <mxPoint x="2311" y="301" />
            </Array>
          </mxGeometry>
        </mxCell>
        <mxCell id="nYYBWFok0ifMD28NbzwQ-117" value="Yes" style="edgeLabel;html=1;align=center;verticalAlign=middle;resizable=0;points=[];" vertex="1" connectable="0" parent="nYYBWFok0ifMD28NbzwQ-115">
          <mxGeometry x="-0.0619" y="-2" relative="1" as="geometry">
            <mxPoint as="offset" />
          </mxGeometry>
        </mxCell>
        <mxCell id="nYYBWFok0ifMD28NbzwQ-112" value="Help the Village" style="rhombus;whiteSpace=wrap;html=1;shadow=0;fontFamily=Helvetica;fontSize=12;align=center;strokeWidth=1;spacing=6;spacingTop=-4;fillColor=#e1d5e7;strokeColor=#9673a6;" vertex="1" parent="WIyWlLk6GJQsqaUBKTNV-1">
          <mxGeometry x="2187.5" y="255" width="105" height="90" as="geometry" />
        </mxCell>
        <mxCell id="nYYBWFok0ifMD28NbzwQ-113" value="End of Quest" style="rounded=1;whiteSpace=wrap;html=1;fontSize=12;glass=0;strokeWidth=1;shadow=0;fillColor=#e51400;strokeColor=#B20000;fontColor=#ffffff;" vertex="1" parent="WIyWlLk6GJQsqaUBKTNV-1">
          <mxGeometry x="2180" y="442.5" width="120" height="40" as="geometry" />
        </mxCell>
        <mxCell id="nYYBWFok0ifMD28NbzwQ-118" style="edgeStyle=orthogonalEdgeStyle;rounded=0;orthogonalLoop=1;jettySize=auto;html=1;" edge="1" parent="WIyWlLk6GJQsqaUBKTNV-1" source="nYYBWFok0ifMD28NbzwQ-116">
          <mxGeometry relative="1" as="geometry">
            <mxPoint x="2550" y="300" as="targetPoint" />
          </mxGeometry>
        </mxCell>
        <mxCell id="nYYBWFok0ifMD28NbzwQ-116" value="Quest Open" style="ellipse;whiteSpace=wrap;html=1;fillColor=#ffe6cc;strokeColor=#d79b00;" vertex="1" parent="WIyWlLk6GJQsqaUBKTNV-1">
          <mxGeometry x="2350" y="275" width="120" height="50" as="geometry" />
        </mxCell>
        <mxCell id="nYYBWFok0ifMD28NbzwQ-119" value="Healing Touch" style="swimlane;fontStyle=0;childLayout=stackLayout;horizontal=1;startSize=30;horizontalStack=0;resizeParent=1;resizeParentMax=0;resizeLast=0;collapsible=1;marginBottom=0;whiteSpace=wrap;html=1;fillColor=#1ba1e2;strokeColor=#006EAF;fontColor=#ffffff;" vertex="1" parent="WIyWlLk6GJQsqaUBKTNV-1">
          <mxGeometry x="2580" y="80" width="180" height="60" as="geometry" />
        </mxCell>
        <mxCell id="nYYBWFok0ifMD28NbzwQ-135" value="Find StoneBloom" style="text;strokeColor=#b85450;fillColor=#f8cecc;align=left;verticalAlign=middle;spacingLeft=4;spacingRight=4;overflow=hidden;points=[[0,0.5],[1,0.5]];portConstraint=eastwest;rotatable=0;whiteSpace=wrap;html=1;" vertex="1" parent="nYYBWFok0ifMD28NbzwQ-119">
          <mxGeometry y="30" width="180" height="30" as="geometry" />
        </mxCell>
        <mxCell id="nYYBWFok0ifMD28NbzwQ-123" value="Snake Problem" style="swimlane;fontStyle=0;childLayout=stackLayout;horizontal=1;startSize=30;horizontalStack=0;resizeParent=1;resizeParentMax=0;resizeLast=0;collapsible=1;marginBottom=0;whiteSpace=wrap;html=1;fillColor=#1ba1e2;strokeColor=#006EAF;fontColor=#ffffff;" vertex="1" parent="WIyWlLk6GJQsqaUBKTNV-1">
          <mxGeometry x="2800" y="80" width="180" height="60" as="geometry" />
        </mxCell>
        <mxCell id="nYYBWFok0ifMD28NbzwQ-136" value="Kill 10 Snakes and Destroy 2 nests" style="text;strokeColor=#b85450;fillColor=#f8cecc;align=left;verticalAlign=middle;spacingLeft=4;spacingRight=4;overflow=hidden;points=[[0,0.5],[1,0.5]];portConstraint=eastwest;rotatable=0;whiteSpace=wrap;html=1;" vertex="1" parent="nYYBWFok0ifMD28NbzwQ-123">
          <mxGeometry y="30" width="180" height="30" as="geometry" />
        </mxCell>
        <mxCell id="nYYBWFok0ifMD28NbzwQ-128" value="Boar Hunt" style="swimlane;fontStyle=0;childLayout=stackLayout;horizontal=1;startSize=30;horizontalStack=0;resizeParent=1;resizeParentMax=0;resizeLast=0;collapsible=1;marginBottom=0;whiteSpace=wrap;html=1;fillColor=#1ba1e2;strokeColor=#006EAF;fontColor=#ffffff;" vertex="1" parent="WIyWlLk6GJQsqaUBKTNV-1">
          <mxGeometry x="2580" y="317.5" width="180" height="60" as="geometry" />
        </mxCell>
        <mxCell id="nYYBWFok0ifMD28NbzwQ-140" value="Find and bring meat from one Desert Boar" style="text;strokeColor=#b85450;fillColor=#f8cecc;align=left;verticalAlign=middle;spacingLeft=4;spacingRight=4;overflow=hidden;points=[[0,0.5],[1,0.5]];portConstraint=eastwest;rotatable=0;whiteSpace=wrap;html=1;" vertex="1" parent="nYYBWFok0ifMD28NbzwQ-128">
          <mxGeometry y="30" width="180" height="30" as="geometry" />
        </mxCell>
        <mxCell id="nYYBWFok0ifMD28NbzwQ-132" value="Rebuilding" style="swimlane;fontStyle=0;childLayout=stackLayout;horizontal=1;startSize=30;horizontalStack=0;resizeParent=1;resizeParentMax=0;resizeLast=0;collapsible=1;marginBottom=0;whiteSpace=wrap;html=1;fillColor=#1ba1e2;strokeColor=#006EAF;fontColor=#ffffff;" vertex="1" parent="WIyWlLk6GJQsqaUBKTNV-1">
          <mxGeometry x="2800" y="417.5" width="180" height="170" as="geometry" />
        </mxCell>
        <mxCell id="nYYBWFok0ifMD28NbzwQ-143" value="Find Lumber and Clear destroied homes" style="text;strokeColor=#b85450;fillColor=#f8cecc;align=left;verticalAlign=middle;spacingLeft=4;spacingRight=4;overflow=hidden;points=[[0,0.5],[1,0.5]];portConstraint=eastwest;rotatable=0;whiteSpace=wrap;html=1;" vertex="1" parent="nYYBWFok0ifMD28NbzwQ-132">
          <mxGeometry y="30" width="180" height="30" as="geometry" />
        </mxCell>
        <mxCell id="nYYBWFok0ifMD28NbzwQ-134" value="On Success:&#xa;&#xa;Silv Karma -=1&#xa;Village Karma +=1&#xa;HasSalvageWood==true" style="text;strokeColor=#82b366;fillColor=#d5e8d4;align=left;verticalAlign=middle;spacingLeft=4;spacingRight=4;overflow=hidden;points=[[0,0.5],[1,0.5]];portConstraint=eastwest;rotatable=0;whiteSpace=wrap;" vertex="1" parent="nYYBWFok0ifMD28NbzwQ-132">
          <mxGeometry y="60" width="180" height="110" as="geometry" />
        </mxCell>
        <mxCell id="nYYBWFok0ifMD28NbzwQ-120" value="Hints with Maggie" style="text;strokeColor=#d79b00;fillColor=#ffe6cc;align=left;verticalAlign=middle;spacingLeft=4;spacingRight=4;overflow=hidden;points=[[0,0.5],[1,0.5]];portConstraint=eastwest;rotatable=0;whiteSpace=wrap;html=1;" vertex="1" parent="WIyWlLk6GJQsqaUBKTNV-1">
          <mxGeometry x="2580" y="140" width="180" height="30" as="geometry" />
        </mxCell>
        <mxCell id="nYYBWFok0ifMD28NbzwQ-121" value="On Success:&#xa;&#xa;Silv Karma -=2&#xa;Village Karma +=2&#xa;SaveBenSister==true" style="text;strokeColor=#82b366;fillColor=#d5e8d4;align=left;verticalAlign=middle;spacingLeft=4;spacingRight=4;overflow=hidden;points=[[0,0.5],[1,0.5]];portConstraint=eastwest;rotatable=0;whiteSpace=wrap;" vertex="1" parent="WIyWlLk6GJQsqaUBKTNV-1">
          <mxGeometry x="2580" y="170" width="180" height="110" as="geometry" />
        </mxCell>
        <mxCell id="nYYBWFok0ifMD28NbzwQ-124" value="Hints with Gust" style="text;strokeColor=#d79b00;fillColor=#ffe6cc;align=left;verticalAlign=middle;spacingLeft=4;spacingRight=4;overflow=hidden;points=[[0,0.5],[1,0.5]];portConstraint=eastwest;rotatable=0;whiteSpace=wrap;html=1;" vertex="1" parent="WIyWlLk6GJQsqaUBKTNV-1">
          <mxGeometry x="2800" y="170" width="180" height="30" as="geometry" />
        </mxCell>
        <mxCell id="nYYBWFok0ifMD28NbzwQ-125" value="On Success:&lt;br&gt;&lt;br&gt;Silv Karma -=1&lt;div&gt;Village Karma +=1&lt;/div&gt;" style="text;strokeColor=#82b366;fillColor=#d5e8d4;align=left;verticalAlign=middle;spacingLeft=4;spacingRight=4;overflow=hidden;points=[[0,0.5],[1,0.5]];portConstraint=eastwest;rotatable=0;whiteSpace=wrap;html=1;" vertex="1" parent="WIyWlLk6GJQsqaUBKTNV-1">
          <mxGeometry x="2800" y="200" width="180" height="90" as="geometry" />
        </mxCell>
        <mxCell id="nYYBWFok0ifMD28NbzwQ-127" value="On Optional:&lt;br&gt;&lt;br&gt;InvestigatingSnakePredators = true" style="text;strokeColor=#82b366;fillColor=#d5e8d4;align=left;verticalAlign=middle;spacingLeft=4;spacingRight=4;overflow=hidden;points=[[0,0.5],[1,0.5]];portConstraint=eastwest;rotatable=0;whiteSpace=wrap;html=1;" vertex="1" parent="WIyWlLk6GJQsqaUBKTNV-1">
          <mxGeometry x="2800" y="290" width="180" height="90" as="geometry" />
        </mxCell>
        <mxCell id="nYYBWFok0ifMD28NbzwQ-139" value="Optional: investigate predators area" style="text;strokeColor=#b85450;fillColor=#f8cecc;align=left;verticalAlign=middle;spacingLeft=4;spacingRight=4;overflow=hidden;points=[[0,0.5],[1,0.5]];portConstraint=eastwest;rotatable=0;whiteSpace=wrap;html=1;" vertex="1" parent="WIyWlLk6GJQsqaUBKTNV-1">
          <mxGeometry x="2800" y="140" width="180" height="30" as="geometry" />
        </mxCell>
        <mxCell id="nYYBWFok0ifMD28NbzwQ-131" value="&lt;div&gt;On Optional:&lt;/div&gt;&lt;div&gt;&lt;br&gt;Silv Boar Scene&lt;br&gt;Silv Karma -=1&lt;div&gt;Village Karma +=1&lt;/div&gt;&lt;/div&gt;" style="text;strokeColor=#82b366;fillColor=#d5e8d4;align=left;verticalAlign=middle;spacingLeft=4;spacingRight=4;overflow=hidden;points=[[0,0.5],[1,0.5]];portConstraint=eastwest;rotatable=0;whiteSpace=wrap;html=1;" vertex="1" parent="WIyWlLk6GJQsqaUBKTNV-1">
          <mxGeometry x="2580" y="497.5" width="180" height="90" as="geometry" />
        </mxCell>
        <mxCell id="nYYBWFok0ifMD28NbzwQ-130" value="On Success:&lt;div&gt;&lt;br&gt;Dinner Scene&lt;br&gt;&lt;div&gt;Village Karma +=1&lt;/div&gt;&lt;/div&gt;" style="text;strokeColor=#82b366;fillColor=#d5e8d4;align=left;verticalAlign=middle;spacingLeft=4;spacingRight=4;overflow=hidden;points=[[0,0.5],[1,0.5]];portConstraint=eastwest;rotatable=0;whiteSpace=wrap;html=1;" vertex="1" parent="WIyWlLk6GJQsqaUBKTNV-1">
          <mxGeometry x="2580" y="407.5" width="180" height="90" as="geometry" />
        </mxCell>
        <mxCell id="nYYBWFok0ifMD28NbzwQ-141" value="Optional: Find and bring meat from fiveDesert Boar" style="text;strokeColor=#b85450;fillColor=#f8cecc;align=left;verticalAlign=middle;spacingLeft=4;spacingRight=4;overflow=hidden;points=[[0,0.5],[1,0.5]];portConstraint=eastwest;rotatable=0;whiteSpace=wrap;html=1;" vertex="1" parent="WIyWlLk6GJQsqaUBKTNV-1">
          <mxGeometry x="2580" y="377.5" width="180" height="30" as="geometry" />
        </mxCell>
        <mxCell id="nYYBWFok0ifMD28NbzwQ-148" value="Whispers of the Dragon" style="swimlane;fontStyle=0;childLayout=stackLayout;horizontal=1;startSize=30;horizontalStack=0;resizeParent=1;resizeParentMax=0;resizeLast=0;collapsible=1;marginBottom=0;whiteSpace=wrap;html=1;fillColor=#1ba1e2;strokeColor=#006EAF;fontColor=#ffffff;" vertex="1" parent="WIyWlLk6GJQsqaUBKTNV-1">
          <mxGeometry x="3050" y="80" width="180" height="60" as="geometry" />
        </mxCell>
        <mxCell id="nYYBWFok0ifMD28NbzwQ-149" value="To go Draconic Temple Ruins" style="text;strokeColor=#b85450;fillColor=#f8cecc;align=left;verticalAlign=middle;spacingLeft=4;spacingRight=4;overflow=hidden;points=[[0,0.5],[1,0.5]];portConstraint=eastwest;rotatable=0;whiteSpace=wrap;html=1;" vertex="1" parent="nYYBWFok0ifMD28NbzwQ-148">
          <mxGeometry y="30" width="180" height="30" as="geometry" />
        </mxCell>
        <mxCell id="nYYBWFok0ifMD28NbzwQ-151" value="On Success:&#xa;&#xa;Lira DranoicTemple Scene&#xa;" style="text;strokeColor=#82b366;fillColor=#d5e8d4;align=left;verticalAlign=middle;spacingLeft=4;spacingRight=4;overflow=hidden;points=[[0,0.5],[1,0.5]];portConstraint=eastwest;rotatable=0;whiteSpace=wrap;" vertex="1" parent="WIyWlLk6GJQsqaUBKTNV-1">
          <mxGeometry x="3050" y="170" width="180" height="70" as="geometry" />
        </mxCell>
        <mxCell id="nYYBWFok0ifMD28NbzwQ-152" value="Optional: Find and give Lira the dagger" style="text;strokeColor=#b85450;fillColor=#f8cecc;align=left;verticalAlign=middle;spacingLeft=4;spacingRight=4;overflow=hidden;points=[[0,0.5],[1,0.5]];portConstraint=eastwest;rotatable=0;whiteSpace=wrap;html=1;" vertex="1" parent="WIyWlLk6GJQsqaUBKTNV-1">
          <mxGeometry x="3050" y="140" width="180" height="30" as="geometry" />
        </mxCell>
        <mxCell id="nYYBWFok0ifMD28NbzwQ-153" value="On Optional:&lt;div&gt;&lt;br&gt;LiraHasDraconicDagger= true&lt;/div&gt;" style="text;strokeColor=#82b366;fillColor=#d5e8d4;align=left;verticalAlign=middle;spacingLeft=4;spacingRight=4;overflow=hidden;points=[[0,0.5],[1,0.5]];portConstraint=eastwest;rotatable=0;whiteSpace=wrap;html=1;" vertex="1" parent="WIyWlLk6GJQsqaUBKTNV-1">
          <mxGeometry x="3050" y="240" width="180" height="70" as="geometry" />
        </mxCell>
        <mxCell id="nYYBWFok0ifMD28NbzwQ-154" value="StormWolf puppies" style="swimlane;fontStyle=0;childLayout=stackLayout;horizontal=1;startSize=30;horizontalStack=0;resizeParent=1;resizeParentMax=0;resizeLast=0;collapsible=1;marginBottom=0;whiteSpace=wrap;html=1;fillColor=#1ba1e2;strokeColor=#006EAF;fontColor=#ffffff;" vertex="1" parent="WIyWlLk6GJQsqaUBKTNV-1">
          <mxGeometry x="3290" y="80" width="180" height="60" as="geometry" />
        </mxCell>
        <mxCell id="nYYBWFok0ifMD28NbzwQ-155" value="Save StormWolf Puppies" style="text;strokeColor=#b85450;fillColor=#f8cecc;align=left;verticalAlign=middle;spacingLeft=4;spacingRight=4;overflow=hidden;points=[[0,0.5],[1,0.5]];portConstraint=eastwest;rotatable=0;whiteSpace=wrap;html=1;" vertex="1" parent="nYYBWFok0ifMD28NbzwQ-154">
          <mxGeometry y="30" width="180" height="30" as="geometry" />
        </mxCell>
        <mxCell id="nYYBWFok0ifMD28NbzwQ-156" value="On Success:&#xa;&#xa;Village Karma +=1&#xa;StromWolfPupies==true" style="text;strokeColor=#82b366;fillColor=#d5e8d4;align=left;verticalAlign=middle;spacingLeft=4;spacingRight=4;overflow=hidden;points=[[0,0.5],[1,0.5]];portConstraint=eastwest;rotatable=0;whiteSpace=wrap;" vertex="1" parent="WIyWlLk6GJQsqaUBKTNV-1">
          <mxGeometry x="3290" y="140" width="180" height="70" as="geometry" />
        </mxCell>
        <mxCell id="nYYBWFok0ifMD28NbzwQ-160" value="&lt;font style=&quot;font-size: 19px;&quot;&gt;Hidden Quests&lt;/font&gt;" style="rounded=0;whiteSpace=wrap;html=1;fillColor=none;dashed=1;dashPattern=8 8;strokeWidth=3;" vertex="1" parent="WIyWlLk6GJQsqaUBKTNV-1">
          <mxGeometry x="3020" y="60" width="530" height="550" as="geometry" />
        </mxCell>
        <mxCell id="nYYBWFok0ifMD28NbzwQ-194" value="" style="edgeStyle=orthogonalEdgeStyle;rounded=0;orthogonalLoop=1;jettySize=auto;html=1;" edge="1" parent="WIyWlLk6GJQsqaUBKTNV-1" source="nYYBWFok0ifMD28NbzwQ-161" target="nYYBWFok0ifMD28NbzwQ-163">
          <mxGeometry relative="1" as="geometry" />
        </mxCell>
        <mxCell id="nYYBWFok0ifMD28NbzwQ-195" value="Yes" style="edgeLabel;html=1;align=center;verticalAlign=middle;resizable=0;points=[];" vertex="1" connectable="0" parent="nYYBWFok0ifMD28NbzwQ-194">
          <mxGeometry x="-0.2" y="-4" relative="1" as="geometry">
            <mxPoint as="offset" />
          </mxGeometry>
        </mxCell>
        <mxCell id="nYYBWFok0ifMD28NbzwQ-235" value="" style="edgeStyle=orthogonalEdgeStyle;rounded=0;orthogonalLoop=1;jettySize=auto;html=1;" edge="1" parent="WIyWlLk6GJQsqaUBKTNV-1" source="nYYBWFok0ifMD28NbzwQ-161" target="nYYBWFok0ifMD28NbzwQ-234">
          <mxGeometry relative="1" as="geometry" />
        </mxCell>
        <mxCell id="nYYBWFok0ifMD28NbzwQ-161" value="&lt;span style=&quot;text-align: left;&quot;&gt;Village Karma &amp;gt;=5&lt;/span&gt;" style="ellipse;whiteSpace=wrap;html=1;fillColor=#ffe6cc;strokeColor=#d79b00;" vertex="1" parent="WIyWlLk6GJQsqaUBKTNV-1">
          <mxGeometry x="3780" y="50" width="120" height="50" as="geometry" />
        </mxCell>
        <mxCell id="nYYBWFok0ifMD28NbzwQ-166" value="" style="edgeStyle=orthogonalEdgeStyle;rounded=0;orthogonalLoop=1;jettySize=auto;html=1;" edge="1" parent="WIyWlLk6GJQsqaUBKTNV-1" source="nYYBWFok0ifMD28NbzwQ-163" target="nYYBWFok0ifMD28NbzwQ-165">
          <mxGeometry relative="1" as="geometry" />
        </mxCell>
        <mxCell id="nYYBWFok0ifMD28NbzwQ-167" value="Yes" style="edgeLabel;html=1;align=center;verticalAlign=middle;resizable=0;points=[];" vertex="1" connectable="0" parent="nYYBWFok0ifMD28NbzwQ-166">
          <mxGeometry x="0.1111" y="3" relative="1" as="geometry">
            <mxPoint as="offset" />
          </mxGeometry>
        </mxCell>
        <mxCell id="nYYBWFok0ifMD28NbzwQ-163" value="&lt;span style=&quot;text-align: left;&quot;&gt;Silv Karma &amp;lt;= -7&lt;/span&gt;" style="ellipse;whiteSpace=wrap;html=1;fillColor=#ffe6cc;strokeColor=#d79b00;" vertex="1" parent="WIyWlLk6GJQsqaUBKTNV-1">
          <mxGeometry x="3780" y="160" width="120" height="50" as="geometry" />
        </mxCell>
        <mxCell id="nYYBWFok0ifMD28NbzwQ-169" style="edgeStyle=orthogonalEdgeStyle;rounded=0;orthogonalLoop=1;jettySize=auto;html=1;exitX=0.5;exitY=1;exitDx=0;exitDy=0;entryX=0.5;entryY=0;entryDx=0;entryDy=0;" edge="1" parent="WIyWlLk6GJQsqaUBKTNV-1" source="nYYBWFok0ifMD28NbzwQ-165" target="nYYBWFok0ifMD28NbzwQ-168">
          <mxGeometry relative="1" as="geometry" />
        </mxCell>
        <mxCell id="nYYBWFok0ifMD28NbzwQ-165" value="Silv Angry Scene" style="rounded=1;whiteSpace=wrap;html=1;fontSize=12;glass=0;strokeWidth=1;shadow=0;fillColor=#fff2cc;strokeColor=#d6b656;" vertex="1" parent="WIyWlLk6GJQsqaUBKTNV-1">
          <mxGeometry x="3780" y="315" width="120" height="40" as="geometry" />
        </mxCell>
        <mxCell id="nYYBWFok0ifMD28NbzwQ-170" style="edgeStyle=orthogonalEdgeStyle;rounded=0;orthogonalLoop=1;jettySize=auto;html=1;exitX=0;exitY=0.5;exitDx=0;exitDy=0;" edge="1" parent="WIyWlLk6GJQsqaUBKTNV-1" source="nYYBWFok0ifMD28NbzwQ-168">
          <mxGeometry relative="1" as="geometry">
            <mxPoint x="3710" y="430" as="targetPoint" />
          </mxGeometry>
        </mxCell>
        <mxCell id="nYYBWFok0ifMD28NbzwQ-171" value="Leave&lt;br&gt;Village" style="edgeLabel;html=1;align=center;verticalAlign=middle;resizable=0;points=[];" vertex="1" connectable="0" parent="nYYBWFok0ifMD28NbzwQ-170">
          <mxGeometry x="0.0366" y="2" relative="1" as="geometry">
            <mxPoint as="offset" />
          </mxGeometry>
        </mxCell>
        <mxCell id="nYYBWFok0ifMD28NbzwQ-174" style="edgeStyle=orthogonalEdgeStyle;rounded=0;orthogonalLoop=1;jettySize=auto;html=1;exitX=0;exitY=1;exitDx=0;exitDy=0;entryX=1;entryY=0.5;entryDx=0;entryDy=0;" edge="1" parent="WIyWlLk6GJQsqaUBKTNV-1" source="nYYBWFok0ifMD28NbzwQ-168" target="nYYBWFok0ifMD28NbzwQ-176">
          <mxGeometry relative="1" as="geometry">
            <mxPoint x="3710" y="502.5" as="targetPoint" />
          </mxGeometry>
        </mxCell>
        <mxCell id="nYYBWFok0ifMD28NbzwQ-175" value="Continue&lt;div&gt;&amp;nbsp;Helpimg&lt;/div&gt;" style="edgeLabel;html=1;align=center;verticalAlign=middle;resizable=0;points=[];" vertex="1" connectable="0" parent="nYYBWFok0ifMD28NbzwQ-174">
          <mxGeometry x="0.183" y="2" relative="1" as="geometry">
            <mxPoint as="offset" />
          </mxGeometry>
        </mxCell>
        <mxCell id="nYYBWFok0ifMD28NbzwQ-180" value="" style="edgeStyle=orthogonalEdgeStyle;rounded=0;orthogonalLoop=1;jettySize=auto;html=1;" edge="1" parent="WIyWlLk6GJQsqaUBKTNV-1" source="nYYBWFok0ifMD28NbzwQ-168" target="nYYBWFok0ifMD28NbzwQ-178">
          <mxGeometry relative="1" as="geometry" />
        </mxCell>
        <mxCell id="nYYBWFok0ifMD28NbzwQ-191" style="edgeStyle=orthogonalEdgeStyle;rounded=0;orthogonalLoop=1;jettySize=auto;html=1;exitX=1;exitY=1;exitDx=0;exitDy=0;entryX=0.5;entryY=0;entryDx=0;entryDy=0;" edge="1" parent="WIyWlLk6GJQsqaUBKTNV-1" source="nYYBWFok0ifMD28NbzwQ-168" target="nYYBWFok0ifMD28NbzwQ-183">
          <mxGeometry relative="1" as="geometry" />
        </mxCell>
        <mxCell id="nYYBWFok0ifMD28NbzwQ-192" value="Thraten Him" style="edgeLabel;html=1;align=center;verticalAlign=middle;resizable=0;points=[];" vertex="1" connectable="0" parent="nYYBWFok0ifMD28NbzwQ-191">
          <mxGeometry x="-0.2803" y="-3" relative="1" as="geometry">
            <mxPoint as="offset" />
          </mxGeometry>
        </mxCell>
        <mxCell id="nYYBWFok0ifMD28NbzwQ-168" value="Speak with Him" style="rhombus;whiteSpace=wrap;html=1;shadow=0;fontFamily=Helvetica;fontSize=12;align=center;strokeWidth=1;spacing=6;spacingTop=-4;fillColor=#e1d5e7;strokeColor=#9673a6;" vertex="1" parent="WIyWlLk6GJQsqaUBKTNV-1">
          <mxGeometry x="3787.5" y="387.5" width="105" height="85" as="geometry" />
        </mxCell>
        <mxCell id="nYYBWFok0ifMD28NbzwQ-172" value="End of Quest" style="rounded=1;whiteSpace=wrap;html=1;fontSize=12;glass=0;strokeWidth=1;shadow=0;fillColor=#e51400;strokeColor=#B20000;fontColor=#ffffff;" vertex="1" parent="WIyWlLk6GJQsqaUBKTNV-1">
          <mxGeometry x="3590" y="410" width="120" height="40" as="geometry" />
        </mxCell>
        <mxCell id="nYYBWFok0ifMD28NbzwQ-176" value="Silv Threaten&amp;nbsp;Scene1" style="rounded=1;whiteSpace=wrap;html=1;fontSize=12;glass=0;strokeWidth=1;shadow=0;fillColor=#fff2cc;strokeColor=#d6b656;" vertex="1" parent="WIyWlLk6GJQsqaUBKTNV-1">
          <mxGeometry x="3590" y="490" width="120" height="40" as="geometry" />
        </mxCell>
        <mxCell id="nYYBWFok0ifMD28NbzwQ-177" value="Silv Threaten&amp;nbsp;Scene2" style="rounded=1;whiteSpace=wrap;html=1;fontSize=12;glass=0;strokeWidth=1;shadow=0;fillColor=#fff2cc;strokeColor=#d6b656;" vertex="1" parent="WIyWlLk6GJQsqaUBKTNV-1">
          <mxGeometry x="3780" y="587.5" width="120" height="40" as="geometry" />
        </mxCell>
        <mxCell id="nYYBWFok0ifMD28NbzwQ-179" value="" style="edgeStyle=orthogonalEdgeStyle;rounded=0;orthogonalLoop=1;jettySize=auto;html=1;" edge="1" parent="WIyWlLk6GJQsqaUBKTNV-1" source="nYYBWFok0ifMD28NbzwQ-178" target="nYYBWFok0ifMD28NbzwQ-177">
          <mxGeometry relative="1" as="geometry" />
        </mxCell>
        <mxCell id="nYYBWFok0ifMD28NbzwQ-181" value="Ask about hunting" style="edgeLabel;html=1;align=center;verticalAlign=middle;resizable=0;points=[];" vertex="1" connectable="0" parent="nYYBWFok0ifMD28NbzwQ-179">
          <mxGeometry x="-0.3647" y="2" relative="1" as="geometry">
            <mxPoint as="offset" />
          </mxGeometry>
        </mxCell>
        <mxCell id="nYYBWFok0ifMD28NbzwQ-178" value="SnakePredators&lt;div&gt;Investigated?&lt;/div&gt;" style="ellipse;whiteSpace=wrap;html=1;fillColor=#ffe6cc;strokeColor=#d79b00;" vertex="1" parent="WIyWlLk6GJQsqaUBKTNV-1">
          <mxGeometry x="3780" y="497.5" width="120" height="50" as="geometry" />
        </mxCell>
        <mxCell id="nYYBWFok0ifMD28NbzwQ-190" value="" style="edgeStyle=orthogonalEdgeStyle;rounded=0;orthogonalLoop=1;jettySize=auto;html=1;" edge="1" parent="WIyWlLk6GJQsqaUBKTNV-1" source="nYYBWFok0ifMD28NbzwQ-183" target="nYYBWFok0ifMD28NbzwQ-188">
          <mxGeometry relative="1" as="geometry" />
        </mxCell>
        <mxCell id="nYYBWFok0ifMD28NbzwQ-183" value="Silv Pre combat Scene" style="rounded=1;whiteSpace=wrap;html=1;fontSize=12;glass=0;strokeWidth=1;shadow=0;fillColor=#fff2cc;strokeColor=#d6b656;" vertex="1" parent="WIyWlLk6GJQsqaUBKTNV-1">
          <mxGeometry x="3980" y="505" width="120" height="40" as="geometry" />
        </mxCell>
        <mxCell id="nYYBWFok0ifMD28NbzwQ-252" style="edgeStyle=orthogonalEdgeStyle;rounded=0;orthogonalLoop=1;jettySize=auto;html=1;exitX=0.5;exitY=1;exitDx=0;exitDy=0;" edge="1" parent="WIyWlLk6GJQsqaUBKTNV-1" source="nYYBWFok0ifMD28NbzwQ-188">
          <mxGeometry relative="1" as="geometry">
            <mxPoint x="4040" y="700" as="targetPoint" />
          </mxGeometry>
        </mxCell>
        <mxCell id="nYYBWFok0ifMD28NbzwQ-188" value="SILV COMBAT" style="rounded=1;whiteSpace=wrap;html=1;fontSize=12;glass=0;strokeWidth=1;shadow=0;fillColor=#fa6800;strokeColor=#C73500;fontColor=#000000;" vertex="1" parent="WIyWlLk6GJQsqaUBKTNV-1">
          <mxGeometry x="3980" y="615.5" width="120" height="40" as="geometry" />
        </mxCell>
        <mxCell id="nYYBWFok0ifMD28NbzwQ-202" value="The Thielf" style="swimlane;fontStyle=0;childLayout=stackLayout;horizontal=1;startSize=30;horizontalStack=0;resizeParent=1;resizeParentMax=0;resizeLast=0;collapsible=1;marginBottom=0;whiteSpace=wrap;html=1;fillColor=#1ba1e2;strokeColor=#006EAF;fontColor=#ffffff;" vertex="1" parent="WIyWlLk6GJQsqaUBKTNV-1">
          <mxGeometry x="4170" y="190" width="180" height="60" as="geometry" />
        </mxCell>
        <mxCell id="nYYBWFok0ifMD28NbzwQ-203" value="Find the thielf" style="text;strokeColor=#b85450;fillColor=#f8cecc;align=left;verticalAlign=middle;spacingLeft=4;spacingRight=4;overflow=hidden;points=[[0,0.5],[1,0.5]];portConstraint=eastwest;rotatable=0;whiteSpace=wrap;html=1;" vertex="1" parent="nYYBWFok0ifMD28NbzwQ-202">
          <mxGeometry y="30" width="180" height="30" as="geometry" />
        </mxCell>
        <mxCell id="nYYBWFok0ifMD28NbzwQ-204" value="Herb Gatering" style="swimlane;fontStyle=0;childLayout=stackLayout;horizontal=1;startSize=30;horizontalStack=0;resizeParent=1;resizeParentMax=0;resizeLast=0;collapsible=1;marginBottom=0;whiteSpace=wrap;html=1;fillColor=#1ba1e2;strokeColor=#006EAF;fontColor=#ffffff;" vertex="1" parent="WIyWlLk6GJQsqaUBKTNV-1">
          <mxGeometry x="4390" y="190" width="180" height="150" as="geometry" />
        </mxCell>
        <mxCell id="nYYBWFok0ifMD28NbzwQ-205" value="Meet Joan and get Herbs" style="text;strokeColor=#b85450;fillColor=#f8cecc;align=left;verticalAlign=middle;spacingLeft=4;spacingRight=4;overflow=hidden;points=[[0,0.5],[1,0.5]];portConstraint=eastwest;rotatable=0;whiteSpace=wrap;html=1;" vertex="1" parent="nYYBWFok0ifMD28NbzwQ-204">
          <mxGeometry y="30" width="180" height="30" as="geometry" />
        </mxCell>
        <mxCell id="nYYBWFok0ifMD28NbzwQ-206" value="On Success:&#xa;&#xa;Silv Karma -=1&#xa;Village Karma +=1&#xa;" style="text;strokeColor=#82b366;fillColor=#d5e8d4;align=left;verticalAlign=middle;spacingLeft=4;spacingRight=4;overflow=hidden;points=[[0,0.5],[1,0.5]];portConstraint=eastwest;rotatable=0;whiteSpace=wrap;" vertex="1" parent="nYYBWFok0ifMD28NbzwQ-204">
          <mxGeometry y="60" width="180" height="90" as="geometry" />
        </mxCell>
        <mxCell id="nYYBWFok0ifMD28NbzwQ-214" value="On Success (choose one):&lt;br&gt;&lt;br&gt;Tell Dena&lt;br&gt;&lt;span style=&quot;white-space: pre;&quot;&gt;&#x9;&lt;/span&gt;Silv Karma -=1&lt;div&gt;&lt;span style=&quot;white-space: pre;&quot;&gt;&#x9;&lt;/span&gt;Village Karma +=1&lt;br&gt;Lie to Dena&lt;br&gt;&lt;div&gt;&lt;span style=&quot;white-space: pre;&quot;&gt;&#x9;&lt;/span&gt;Village Karma -=1&lt;/div&gt;&lt;/div&gt;&lt;div&gt;Tell Silv&lt;br&gt;&lt;span style=&quot;white-space: pre;&quot;&gt;&#x9;&lt;/span&gt;Silv Karma +=1&lt;div&gt;&lt;span style=&quot;white-space: pre;&quot;&gt;&#x9;&lt;/span&gt;Village Karma -=2&lt;/div&gt;&lt;/div&gt;" style="text;strokeColor=#82b366;fillColor=#d5e8d4;align=left;verticalAlign=middle;spacingLeft=4;spacingRight=4;overflow=hidden;points=[[0,0.5],[1,0.5]];portConstraint=eastwest;rotatable=0;whiteSpace=wrap;html=1;" vertex="1" parent="WIyWlLk6GJQsqaUBKTNV-1">
          <mxGeometry x="4170" y="250" width="180" height="150" as="geometry" />
        </mxCell>
        <mxCell id="nYYBWFok0ifMD28NbzwQ-216" value="Helping Hand" style="swimlane;fontStyle=0;childLayout=stackLayout;horizontal=1;startSize=30;horizontalStack=0;resizeParent=1;resizeParentMax=0;resizeLast=0;collapsible=1;marginBottom=0;whiteSpace=wrap;html=1;fillColor=#1ba1e2;strokeColor=#006EAF;fontColor=#ffffff;" vertex="1" parent="WIyWlLk6GJQsqaUBKTNV-1">
          <mxGeometry x="4610" y="190" width="180" height="150" as="geometry" />
        </mxCell>
        <mxCell id="nYYBWFok0ifMD28NbzwQ-217" value="Help Build some items" style="text;strokeColor=#b85450;fillColor=#f8cecc;align=left;verticalAlign=middle;spacingLeft=4;spacingRight=4;overflow=hidden;points=[[0,0.5],[1,0.5]];portConstraint=eastwest;rotatable=0;whiteSpace=wrap;html=1;" vertex="1" parent="nYYBWFok0ifMD28NbzwQ-216">
          <mxGeometry y="30" width="180" height="30" as="geometry" />
        </mxCell>
        <mxCell id="nYYBWFok0ifMD28NbzwQ-218" value="On Success:&#xa;Profession.Carpentry +=1&#xa;Silv Karma -=1&#xa;Village Karma +=1&#xa;" style="text;strokeColor=#82b366;fillColor=#d5e8d4;align=left;verticalAlign=middle;spacingLeft=4;spacingRight=4;overflow=hidden;points=[[0,0.5],[1,0.5]];portConstraint=eastwest;rotatable=0;whiteSpace=wrap;" vertex="1" parent="nYYBWFok0ifMD28NbzwQ-216">
          <mxGeometry y="60" width="180" height="90" as="geometry" />
        </mxCell>
        <mxCell id="nYYBWFok0ifMD28NbzwQ-219" value="StormWolfs Training" style="swimlane;fontStyle=0;childLayout=stackLayout;horizontal=1;startSize=30;horizontalStack=0;resizeParent=1;resizeParentMax=0;resizeLast=0;collapsible=1;marginBottom=0;whiteSpace=wrap;html=1;fillColor=#1ba1e2;strokeColor=#006EAF;fontColor=#ffffff;" vertex="1" parent="WIyWlLk6GJQsqaUBKTNV-1">
          <mxGeometry x="4840" y="190" width="180" height="150" as="geometry" />
        </mxCell>
        <mxCell id="nYYBWFok0ifMD28NbzwQ-220" value="Teach Villagers how to train the wolves puppies" style="text;strokeColor=#b85450;fillColor=#f8cecc;align=left;verticalAlign=middle;spacingLeft=4;spacingRight=4;overflow=hidden;points=[[0,0.5],[1,0.5]];portConstraint=eastwest;rotatable=0;whiteSpace=wrap;html=1;" vertex="1" parent="nYYBWFok0ifMD28NbzwQ-219">
          <mxGeometry y="30" width="180" height="30" as="geometry" />
        </mxCell>
        <mxCell id="nYYBWFok0ifMD28NbzwQ-221" value="On Success:&#xa;TrainedStromWolfPupies = true&#xa;Silv Karma -=1&#xa;Village Karma +=1&#xa;" style="text;strokeColor=#82b366;fillColor=#d5e8d4;align=left;verticalAlign=middle;spacingLeft=4;spacingRight=4;overflow=hidden;points=[[0,0.5],[1,0.5]];portConstraint=eastwest;rotatable=0;whiteSpace=wrap;" vertex="1" parent="nYYBWFok0ifMD28NbzwQ-219">
          <mxGeometry y="60" width="180" height="90" as="geometry" />
        </mxCell>
        <mxCell id="nYYBWFok0ifMD28NbzwQ-229" value="" style="endArrow=none;html=1;rounded=0;entryX=0.5;entryY=1;entryDx=0;entryDy=0;" edge="1" parent="WIyWlLk6GJQsqaUBKTNV-1" target="nYYBWFok0ifMD28NbzwQ-204">
          <mxGeometry width="50" height="50" relative="1" as="geometry">
            <mxPoint x="4250" y="430" as="sourcePoint" />
            <mxPoint x="4480" y="400" as="targetPoint" />
            <Array as="points">
              <mxPoint x="4480" y="430" />
            </Array>
          </mxGeometry>
        </mxCell>
        <mxCell id="nYYBWFok0ifMD28NbzwQ-230" value="" style="endArrow=none;html=1;rounded=0;entryX=0.5;entryY=1;entryDx=0;entryDy=0;" edge="1" parent="WIyWlLk6GJQsqaUBKTNV-1" target="nYYBWFok0ifMD28NbzwQ-216">
          <mxGeometry width="50" height="50" relative="1" as="geometry">
            <mxPoint x="4480" y="430" as="sourcePoint" />
            <mxPoint x="4710" y="380" as="targetPoint" />
            <Array as="points">
              <mxPoint x="4700" y="430" />
            </Array>
          </mxGeometry>
        </mxCell>
        <mxCell id="nYYBWFok0ifMD28NbzwQ-231" value="" style="endArrow=none;html=1;rounded=0;entryX=0.5;entryY=1;entryDx=0;entryDy=0;" edge="1" parent="WIyWlLk6GJQsqaUBKTNV-1" target="nYYBWFok0ifMD28NbzwQ-219">
          <mxGeometry width="50" height="50" relative="1" as="geometry">
            <mxPoint x="4700" y="430" as="sourcePoint" />
            <mxPoint x="4710" y="350" as="targetPoint" />
            <Array as="points">
              <mxPoint x="4930" y="430" />
            </Array>
          </mxGeometry>
        </mxCell>
        <mxCell id="nYYBWFok0ifMD28NbzwQ-233" style="edgeStyle=orthogonalEdgeStyle;rounded=0;orthogonalLoop=1;jettySize=auto;html=1;entryX=0.467;entryY=-0.033;entryDx=0;entryDy=0;entryPerimeter=0;" edge="1" parent="WIyWlLk6GJQsqaUBKTNV-1" source="nYYBWFok0ifMD28NbzwQ-234" target="nYYBWFok0ifMD28NbzwQ-202">
          <mxGeometry relative="1" as="geometry">
            <mxPoint x="4160" y="75" as="targetPoint" />
          </mxGeometry>
        </mxCell>
        <mxCell id="nYYBWFok0ifMD28NbzwQ-236" style="edgeStyle=orthogonalEdgeStyle;rounded=0;orthogonalLoop=1;jettySize=auto;html=1;entryX=0.5;entryY=0;entryDx=0;entryDy=0;" edge="1" parent="WIyWlLk6GJQsqaUBKTNV-1" source="nYYBWFok0ifMD28NbzwQ-234" target="nYYBWFok0ifMD28NbzwQ-204">
          <mxGeometry relative="1" as="geometry" />
        </mxCell>
        <mxCell id="nYYBWFok0ifMD28NbzwQ-237" style="edgeStyle=orthogonalEdgeStyle;rounded=0;orthogonalLoop=1;jettySize=auto;html=1;entryX=0.5;entryY=0;entryDx=0;entryDy=0;" edge="1" parent="WIyWlLk6GJQsqaUBKTNV-1" source="nYYBWFok0ifMD28NbzwQ-234" target="nYYBWFok0ifMD28NbzwQ-239">
          <mxGeometry relative="1" as="geometry">
            <mxPoint x="4700" y="90" as="targetPoint" />
          </mxGeometry>
        </mxCell>
        <mxCell id="nYYBWFok0ifMD28NbzwQ-238" style="edgeStyle=orthogonalEdgeStyle;rounded=0;orthogonalLoop=1;jettySize=auto;html=1;" edge="1" parent="WIyWlLk6GJQsqaUBKTNV-1" source="nYYBWFok0ifMD28NbzwQ-234">
          <mxGeometry relative="1" as="geometry">
            <mxPoint x="4920" y="100" as="targetPoint" />
            <Array as="points">
              <mxPoint x="4921" y="75" />
            </Array>
          </mxGeometry>
        </mxCell>
        <mxCell id="nYYBWFok0ifMD28NbzwQ-234" value="Quest Open" style="ellipse;whiteSpace=wrap;html=1;fillColor=#ffe6cc;strokeColor=#d79b00;" vertex="1" parent="WIyWlLk6GJQsqaUBKTNV-1">
          <mxGeometry x="3960" y="50" width="120" height="50" as="geometry" />
        </mxCell>
        <mxCell id="nYYBWFok0ifMD28NbzwQ-242" value="" style="edgeStyle=orthogonalEdgeStyle;rounded=0;orthogonalLoop=1;jettySize=auto;html=1;entryX=0.5;entryY=0;entryDx=0;entryDy=0;" edge="1" parent="WIyWlLk6GJQsqaUBKTNV-1" source="nYYBWFok0ifMD28NbzwQ-239" target="nYYBWFok0ifMD28NbzwQ-216">
          <mxGeometry relative="1" as="geometry" />
        </mxCell>
        <mxCell id="nYYBWFok0ifMD28NbzwQ-239" value="SalvageWood?" style="ellipse;whiteSpace=wrap;html=1;fillColor=#ffe6cc;strokeColor=#d79b00;" vertex="1" parent="WIyWlLk6GJQsqaUBKTNV-1">
          <mxGeometry x="4640" y="105" width="120" height="50" as="geometry" />
        </mxCell>
        <mxCell id="nYYBWFok0ifMD28NbzwQ-245" value="StomWolfPupies?" style="ellipse;whiteSpace=wrap;html=1;fillColor=#ffe6cc;strokeColor=#d79b00;" vertex="1" parent="WIyWlLk6GJQsqaUBKTNV-1">
          <mxGeometry x="4860" y="100" width="120" height="50" as="geometry" />
        </mxCell>
        <mxCell id="nYYBWFok0ifMD28NbzwQ-248" style="edgeStyle=orthogonalEdgeStyle;rounded=0;orthogonalLoop=1;jettySize=auto;html=1;exitX=0.5;exitY=1;exitDx=0;exitDy=0;entryX=0.456;entryY=-0.027;entryDx=0;entryDy=0;entryPerimeter=0;" edge="1" parent="WIyWlLk6GJQsqaUBKTNV-1" source="nYYBWFok0ifMD28NbzwQ-245" target="nYYBWFok0ifMD28NbzwQ-219">
          <mxGeometry relative="1" as="geometry" />
        </mxCell>
        <mxCell id="nYYBWFok0ifMD28NbzwQ-249" value="" style="endArrow=classic;html=1;rounded=0;exitX=0.45;exitY=1.02;exitDx=0;exitDy=0;exitPerimeter=0;" edge="1" parent="WIyWlLk6GJQsqaUBKTNV-1" source="nYYBWFok0ifMD28NbzwQ-214">
          <mxGeometry width="50" height="50" relative="1" as="geometry">
            <mxPoint x="4350" y="340" as="sourcePoint" />
            <mxPoint x="4360" y="500" as="targetPoint" />
            <Array as="points">
              <mxPoint x="4251" y="430" />
              <mxPoint x="4360" y="430" />
            </Array>
          </mxGeometry>
        </mxCell>
        <mxCell id="nYYBWFok0ifMD28NbzwQ-251" style="edgeStyle=orthogonalEdgeStyle;rounded=0;orthogonalLoop=1;jettySize=auto;html=1;exitX=0;exitY=0.5;exitDx=0;exitDy=0;entryX=1;entryY=0.5;entryDx=0;entryDy=0;" edge="1" parent="WIyWlLk6GJQsqaUBKTNV-1" source="nYYBWFok0ifMD28NbzwQ-250" target="nYYBWFok0ifMD28NbzwQ-183">
          <mxGeometry relative="1" as="geometry">
            <mxPoint x="4110" y="525" as="targetPoint" />
          </mxGeometry>
        </mxCell>
        <mxCell id="nYYBWFok0ifMD28NbzwQ-250" value="&lt;span style=&quot;text-align: left;&quot;&gt;Silv Karma &amp;lt;= -10&lt;/span&gt;" style="ellipse;whiteSpace=wrap;html=1;fillColor=#ffe6cc;strokeColor=#d79b00;" vertex="1" parent="WIyWlLk6GJQsqaUBKTNV-1">
          <mxGeometry x="4300" y="500" width="120" height="50" as="geometry" />
        </mxCell>
        <mxCell id="nYYBWFok0ifMD28NbzwQ-253" value="Silv Dying Scene" style="rounded=1;whiteSpace=wrap;html=1;fontSize=12;glass=0;strokeWidth=1;shadow=0;fillColor=#fff2cc;strokeColor=#d6b656;" vertex="1" parent="WIyWlLk6GJQsqaUBKTNV-1">
          <mxGeometry x="3980" y="700" width="120" height="40" as="geometry" />
        </mxCell>
        <mxCell id="nYYBWFok0ifMD28NbzwQ-254" value="Silv Dead" style="rounded=1;whiteSpace=wrap;html=1;fontSize=12;glass=0;strokeWidth=1;shadow=0;fillColor=#dae8fc;strokeColor=#6c8ebf;" vertex="1" parent="WIyWlLk6GJQsqaUBKTNV-1">
          <mxGeometry x="3980" y="740" width="120" height="40" as="geometry" />
        </mxCell>
        <mxCell id="nYYBWFok0ifMD28NbzwQ-257" value="" style="edgeStyle=orthogonalEdgeStyle;rounded=0;orthogonalLoop=1;jettySize=auto;html=1;" edge="1" parent="WIyWlLk6GJQsqaUBKTNV-1" source="nYYBWFok0ifMD28NbzwQ-255" target="nYYBWFok0ifMD28NbzwQ-256">
          <mxGeometry relative="1" as="geometry" />
        </mxCell>
        <mxCell id="nYYBWFok0ifMD28NbzwQ-259" style="edgeStyle=orthogonalEdgeStyle;rounded=0;orthogonalLoop=1;jettySize=auto;html=1;entryX=0.5;entryY=0;entryDx=0;entryDy=0;" edge="1" parent="WIyWlLk6GJQsqaUBKTNV-1" source="nYYBWFok0ifMD28NbzwQ-255" target="nYYBWFok0ifMD28NbzwQ-258">
          <mxGeometry relative="1" as="geometry" />
        </mxCell>
        <mxCell id="nYYBWFok0ifMD28NbzwQ-262" value="false" style="edgeLabel;html=1;align=center;verticalAlign=middle;resizable=0;points=[];" vertex="1" connectable="0" parent="nYYBWFok0ifMD28NbzwQ-259">
          <mxGeometry x="0.5556" y="-4" relative="1" as="geometry">
            <mxPoint as="offset" />
          </mxGeometry>
        </mxCell>
        <mxCell id="nYYBWFok0ifMD28NbzwQ-255" value="Coming Back After end of Main quest" style="rounded=1;whiteSpace=wrap;html=1;fontSize=12;glass=0;strokeWidth=1;shadow=0;fillColor=#f8cecc;strokeColor=#b85450;" vertex="1" parent="WIyWlLk6GJQsqaUBKTNV-1">
          <mxGeometry x="5120" y="80" width="120" height="40" as="geometry" />
        </mxCell>
        <mxCell id="nYYBWFok0ifMD28NbzwQ-272" style="edgeStyle=orthogonalEdgeStyle;rounded=0;orthogonalLoop=1;jettySize=auto;html=1;entryX=0;entryY=0.5;entryDx=0;entryDy=0;" edge="1" parent="WIyWlLk6GJQsqaUBKTNV-1" source="nYYBWFok0ifMD28NbzwQ-256" target="nYYBWFok0ifMD28NbzwQ-273">
          <mxGeometry relative="1" as="geometry">
            <mxPoint x="5310" y="185" as="targetPoint" />
          </mxGeometry>
        </mxCell>
        <mxCell id="nYYBWFok0ifMD28NbzwQ-274" value="true" style="edgeLabel;html=1;align=center;verticalAlign=middle;resizable=0;points=[];" vertex="1" connectable="0" parent="nYYBWFok0ifMD28NbzwQ-272">
          <mxGeometry x="-0.2624" y="4" relative="1" as="geometry">
            <mxPoint as="offset" />
          </mxGeometry>
        </mxCell>
        <mxCell id="nYYBWFok0ifMD28NbzwQ-256" value="Silv Dead?" style="ellipse;whiteSpace=wrap;html=1;fillColor=#ffe6cc;strokeColor=#d79b00;" vertex="1" parent="WIyWlLk6GJQsqaUBKTNV-1">
          <mxGeometry x="5120" y="160" width="120" height="50" as="geometry" />
        </mxCell>
        <mxCell id="nYYBWFok0ifMD28NbzwQ-261" value="" style="edgeStyle=orthogonalEdgeStyle;rounded=0;orthogonalLoop=1;jettySize=auto;html=1;" edge="1" parent="WIyWlLk6GJQsqaUBKTNV-1" source="nYYBWFok0ifMD28NbzwQ-264" target="nYYBWFok0ifMD28NbzwQ-260">
          <mxGeometry relative="1" as="geometry" />
        </mxCell>
        <mxCell id="nYYBWFok0ifMD28NbzwQ-270" style="edgeStyle=orthogonalEdgeStyle;rounded=0;orthogonalLoop=1;jettySize=auto;html=1;exitX=0;exitY=0.5;exitDx=0;exitDy=0;entryX=0;entryY=0.5;entryDx=0;entryDy=0;" edge="1" parent="WIyWlLk6GJQsqaUBKTNV-1" source="nYYBWFok0ifMD28NbzwQ-258" target="nYYBWFok0ifMD28NbzwQ-260">
          <mxGeometry relative="1" as="geometry">
            <Array as="points">
              <mxPoint x="5090" y="280" />
              <mxPoint x="5090" y="520" />
              <mxPoint x="5120" y="520" />
            </Array>
          </mxGeometry>
        </mxCell>
        <mxCell id="nYYBWFok0ifMD28NbzwQ-271" value="false" style="edgeLabel;html=1;align=center;verticalAlign=middle;resizable=0;points=[];" vertex="1" connectable="0" parent="nYYBWFok0ifMD28NbzwQ-270">
          <mxGeometry x="0.0024" y="5" relative="1" as="geometry">
            <mxPoint as="offset" />
          </mxGeometry>
        </mxCell>
        <mxCell id="nYYBWFok0ifMD28NbzwQ-258" value="Villagers Karma &amp;gt; 5" style="ellipse;whiteSpace=wrap;html=1;fillColor=#ffe6cc;strokeColor=#d79b00;" vertex="1" parent="WIyWlLk6GJQsqaUBKTNV-1">
          <mxGeometry x="5120" y="255" width="120" height="50" as="geometry" />
        </mxCell>
        <mxCell id="nYYBWFok0ifMD28NbzwQ-268" value="" style="edgeStyle=orthogonalEdgeStyle;rounded=0;orthogonalLoop=1;jettySize=auto;html=1;" edge="1" parent="WIyWlLk6GJQsqaUBKTNV-1" source="nYYBWFok0ifMD28NbzwQ-260" target="nYYBWFok0ifMD28NbzwQ-267">
          <mxGeometry relative="1" as="geometry" />
        </mxCell>
        <mxCell id="nYYBWFok0ifMD28NbzwQ-269" value="true" style="edgeLabel;html=1;align=center;verticalAlign=middle;resizable=0;points=[];" vertex="1" connectable="0" parent="nYYBWFok0ifMD28NbzwQ-268">
          <mxGeometry x="-0.3176" y="-1" relative="1" as="geometry">
            <mxPoint as="offset" />
          </mxGeometry>
        </mxCell>
        <mxCell id="nYYBWFok0ifMD28NbzwQ-260" value="StormWolfPupies" style="ellipse;whiteSpace=wrap;html=1;fillColor=#ffe6cc;strokeColor=#d79b00;" vertex="1" parent="WIyWlLk6GJQsqaUBKTNV-1">
          <mxGeometry x="5120" y="497.5" width="120" height="50" as="geometry" />
        </mxCell>
        <mxCell id="nYYBWFok0ifMD28NbzwQ-265" value="" style="edgeStyle=orthogonalEdgeStyle;rounded=0;orthogonalLoop=1;jettySize=auto;html=1;" edge="1" parent="WIyWlLk6GJQsqaUBKTNV-1" source="nYYBWFok0ifMD28NbzwQ-258" target="nYYBWFok0ifMD28NbzwQ-264">
          <mxGeometry relative="1" as="geometry">
            <mxPoint x="5180" y="305" as="sourcePoint" />
            <mxPoint x="5180" y="423" as="targetPoint" />
          </mxGeometry>
        </mxCell>
        <mxCell id="nYYBWFok0ifMD28NbzwQ-266" value="true" style="edgeLabel;html=1;align=center;verticalAlign=middle;resizable=0;points=[];" vertex="1" connectable="0" parent="nYYBWFok0ifMD28NbzwQ-265">
          <mxGeometry x="-0.1238" y="2" relative="1" as="geometry">
            <mxPoint as="offset" />
          </mxGeometry>
        </mxCell>
        <mxCell id="nYYBWFok0ifMD28NbzwQ-275" style="edgeStyle=orthogonalEdgeStyle;rounded=0;orthogonalLoop=1;jettySize=auto;html=1;exitX=1;exitY=0.5;exitDx=0;exitDy=0;" edge="1" parent="WIyWlLk6GJQsqaUBKTNV-1" source="nYYBWFok0ifMD28NbzwQ-264">
          <mxGeometry relative="1" as="geometry">
            <mxPoint x="5300" y="380" as="targetPoint" />
          </mxGeometry>
        </mxCell>
        <mxCell id="nYYBWFok0ifMD28NbzwQ-264" value="VillageReturn Scene1" style="rounded=1;whiteSpace=wrap;html=1;fontSize=12;glass=0;strokeWidth=1;shadow=0;fillColor=#fff2cc;strokeColor=#d6b656;" vertex="1" parent="WIyWlLk6GJQsqaUBKTNV-1">
          <mxGeometry x="5120" y="360" width="120" height="40" as="geometry" />
        </mxCell>
        <mxCell id="nYYBWFok0ifMD28NbzwQ-267" value="Silv Puppies Scene" style="rounded=1;whiteSpace=wrap;html=1;fontSize=12;glass=0;strokeWidth=1;shadow=0;fillColor=#fff2cc;strokeColor=#d6b656;" vertex="1" parent="WIyWlLk6GJQsqaUBKTNV-1">
          <mxGeometry x="5120" y="585" width="120" height="40" as="geometry" />
        </mxCell>
        <mxCell id="nYYBWFok0ifMD28NbzwQ-282" style="edgeStyle=orthogonalEdgeStyle;rounded=0;orthogonalLoop=1;jettySize=auto;html=1;exitX=0.5;exitY=1;exitDx=0;exitDy=0;entryX=0.5;entryY=0;entryDx=0;entryDy=0;" edge="1" parent="WIyWlLk6GJQsqaUBKTNV-1" source="nYYBWFok0ifMD28NbzwQ-273" target="nYYBWFok0ifMD28NbzwQ-284">
          <mxGeometry relative="1" as="geometry">
            <mxPoint x="5575" y="330" as="targetPoint" />
          </mxGeometry>
        </mxCell>
        <mxCell id="nYYBWFok0ifMD28NbzwQ-290" value="True" style="edgeLabel;html=1;align=center;verticalAlign=middle;resizable=0;points=[];" vertex="1" connectable="0" parent="nYYBWFok0ifMD28NbzwQ-282">
          <mxGeometry x="-0.16" y="4" relative="1" as="geometry">
            <mxPoint as="offset" />
          </mxGeometry>
        </mxCell>
        <mxCell id="nYYBWFok0ifMD28NbzwQ-292" style="edgeStyle=orthogonalEdgeStyle;rounded=0;orthogonalLoop=1;jettySize=auto;html=1;exitX=1;exitY=0.5;exitDx=0;exitDy=0;entryX=0;entryY=0.5;entryDx=0;entryDy=0;" edge="1" parent="WIyWlLk6GJQsqaUBKTNV-1" source="nYYBWFok0ifMD28NbzwQ-273" target="nYYBWFok0ifMD28NbzwQ-291">
          <mxGeometry relative="1" as="geometry" />
        </mxCell>
        <mxCell id="nYYBWFok0ifMD28NbzwQ-273" value="TrainedStormWolfPupies" style="ellipse;whiteSpace=wrap;html=1;fillColor=#ffe6cc;strokeColor=#d79b00;" vertex="1" parent="WIyWlLk6GJQsqaUBKTNV-1">
          <mxGeometry x="5495" y="160" width="150" height="50" as="geometry" />
        </mxCell>
        <mxCell id="nYYBWFok0ifMD28NbzwQ-277" style="edgeStyle=orthogonalEdgeStyle;rounded=0;orthogonalLoop=1;jettySize=auto;html=1;exitX=0.5;exitY=1;exitDx=0;exitDy=0;" edge="1" parent="WIyWlLk6GJQsqaUBKTNV-1" source="nYYBWFok0ifMD28NbzwQ-276">
          <mxGeometry relative="1" as="geometry">
            <mxPoint x="5360" y="445" as="targetPoint" />
          </mxGeometry>
        </mxCell>
        <mxCell id="nYYBWFok0ifMD28NbzwQ-278" value="true" style="edgeLabel;html=1;align=center;verticalAlign=middle;resizable=0;points=[];" vertex="1" connectable="0" parent="nYYBWFok0ifMD28NbzwQ-277">
          <mxGeometry x="-0.1112" y="2" relative="1" as="geometry">
            <mxPoint as="offset" />
          </mxGeometry>
        </mxCell>
        <mxCell id="nYYBWFok0ifMD28NbzwQ-276" value="SaveBenSister" style="ellipse;whiteSpace=wrap;html=1;fillColor=#ffe6cc;strokeColor=#d79b00;" vertex="1" parent="WIyWlLk6GJQsqaUBKTNV-1">
          <mxGeometry x="5300" y="355" width="120" height="50" as="geometry" />
        </mxCell>
        <mxCell id="nYYBWFok0ifMD28NbzwQ-280" style="edgeStyle=orthogonalEdgeStyle;rounded=0;orthogonalLoop=1;jettySize=auto;html=1;exitX=0;exitY=0.5;exitDx=0;exitDy=0;entryX=0.75;entryY=1;entryDx=0;entryDy=0;" edge="1" parent="WIyWlLk6GJQsqaUBKTNV-1" source="nYYBWFok0ifMD28NbzwQ-279" target="nYYBWFok0ifMD28NbzwQ-264">
          <mxGeometry relative="1" as="geometry" />
        </mxCell>
        <mxCell id="nYYBWFok0ifMD28NbzwQ-279" value="Ben sister working Scene" style="rounded=1;whiteSpace=wrap;html=1;fontSize=12;glass=0;strokeWidth=1;shadow=0;fillColor=#fff2cc;strokeColor=#d6b656;" vertex="1" parent="WIyWlLk6GJQsqaUBKTNV-1">
          <mxGeometry x="5300" y="447.5" width="120" height="40" as="geometry" />
        </mxCell>
        <mxCell id="nYYBWFok0ifMD28NbzwQ-283" style="edgeStyle=orthogonalEdgeStyle;rounded=0;orthogonalLoop=1;jettySize=auto;html=1;exitX=1;exitY=0.5;exitDx=0;exitDy=0;" edge="1" parent="WIyWlLk6GJQsqaUBKTNV-1" source="nYYBWFok0ifMD28NbzwQ-284">
          <mxGeometry relative="1" as="geometry">
            <mxPoint x="5690" y="380" as="targetPoint" />
          </mxGeometry>
        </mxCell>
        <mxCell id="nYYBWFok0ifMD28NbzwQ-284" value="VillageReturn Scene2" style="rounded=1;whiteSpace=wrap;html=1;fontSize=12;glass=0;strokeWidth=1;shadow=0;fillColor=#fff2cc;strokeColor=#d6b656;" vertex="1" parent="WIyWlLk6GJQsqaUBKTNV-1">
          <mxGeometry x="5510" y="360" width="120" height="40" as="geometry" />
        </mxCell>
        <mxCell id="nYYBWFok0ifMD28NbzwQ-285" style="edgeStyle=orthogonalEdgeStyle;rounded=0;orthogonalLoop=1;jettySize=auto;html=1;exitX=0.5;exitY=1;exitDx=0;exitDy=0;" edge="1" parent="WIyWlLk6GJQsqaUBKTNV-1" source="nYYBWFok0ifMD28NbzwQ-287">
          <mxGeometry relative="1" as="geometry">
            <mxPoint x="5750" y="445" as="targetPoint" />
          </mxGeometry>
        </mxCell>
        <mxCell id="nYYBWFok0ifMD28NbzwQ-286" value="true" style="edgeLabel;html=1;align=center;verticalAlign=middle;resizable=0;points=[];" vertex="1" connectable="0" parent="nYYBWFok0ifMD28NbzwQ-285">
          <mxGeometry x="-0.1112" y="2" relative="1" as="geometry">
            <mxPoint as="offset" />
          </mxGeometry>
        </mxCell>
        <mxCell id="nYYBWFok0ifMD28NbzwQ-287" value="SaveBenSister" style="ellipse;whiteSpace=wrap;html=1;fillColor=#ffe6cc;strokeColor=#d79b00;" vertex="1" parent="WIyWlLk6GJQsqaUBKTNV-1">
          <mxGeometry x="5690" y="355" width="120" height="50" as="geometry" />
        </mxCell>
        <mxCell id="nYYBWFok0ifMD28NbzwQ-288" style="edgeStyle=orthogonalEdgeStyle;rounded=0;orthogonalLoop=1;jettySize=auto;html=1;exitX=0;exitY=0.5;exitDx=0;exitDy=0;entryX=0.75;entryY=1;entryDx=0;entryDy=0;" edge="1" parent="WIyWlLk6GJQsqaUBKTNV-1" source="nYYBWFok0ifMD28NbzwQ-289" target="nYYBWFok0ifMD28NbzwQ-284">
          <mxGeometry relative="1" as="geometry" />
        </mxCell>
        <mxCell id="nYYBWFok0ifMD28NbzwQ-289" value="Ben sister working Scene" style="rounded=1;whiteSpace=wrap;html=1;fontSize=12;glass=0;strokeWidth=1;shadow=0;fillColor=#fff2cc;strokeColor=#d6b656;" vertex="1" parent="WIyWlLk6GJQsqaUBKTNV-1">
          <mxGeometry x="5690" y="447.5" width="120" height="40" as="geometry" />
        </mxCell>
        <mxCell id="nYYBWFok0ifMD28NbzwQ-291" value="VillageReturn Scene3" style="rounded=1;whiteSpace=wrap;html=1;fontSize=12;glass=0;strokeWidth=1;shadow=0;fillColor=#fff2cc;strokeColor=#d6b656;" vertex="1" parent="WIyWlLk6GJQsqaUBKTNV-1">
          <mxGeometry x="5770" y="165" width="120" height="40" as="geometry" />
        </mxCell>
      </root>
    </mxGraphModel>
  </diagram>
</mxfile>
